ISO-10303-21;
HEADER;
/* Generated by software containing ST-Developer
 * from STEP Tools, Inc. (www.steptools.com) 
 */

FILE_DESCRIPTION(
/* description */ (''),
/* implementation_level */ '2;1');

FILE_NAME(
/* name */ 'm6.step',
/* time_stamp */ '2026-09-27T16:20:15+05:00',
/* author */ (''),
/* organization */ (''),
/* preprocessor_version */ 'ST-DEVELOPER v20.1',
/* originating_system */ 'Autodesk Translation Framework v15.8.0.0',
/* authorisation */ '');

FILE_SCHEMA (('AUTOMOTIVE_DESIGN { 1 0 10303 214 3 1 1 }'));
ENDSEC;

DATA;
#10=MECHANICAL_DESIGN_GEOMETRIC_PRESENTATION_REPRESENTATION('',(#13,#14),
#2054);
#11=SHAPE_REPRESENTATION_RELATIONSHIP('SRR','None',#2061,#12);
#12=ADVANCED_BREP_SHAPE_REPRESENTATION('',(#15,#16),#2053);
#13=STYLED_ITEM('',(#2070),#15);
#14=STYLED_ITEM('',(#2070),#16);
#15=MANIFOLD_SOLID_BREP('Body1',#1245);
#16=MANIFOLD_SOLID_BREP('Body2',#1246);
#17=CONICAL_SURFACE('',#1303,0.525,1.02974425867665);
#18=CONICAL_SURFACE('',#1307,0.5,1.02974425867665);
#19=CONICAL_SURFACE('',#1321,0.625,1.02974425867665);
#20=CONICAL_SURFACE('',#1325,0.5,1.02974425867665);
#21=FACE_BOUND('',#445,.T.);
#22=FACE_BOUND('',#446,.T.);
#23=FACE_BOUND('',#458,.T.);
#24=FACE_BOUND('',#460,.T.);
#25=FACE_BOUND('',#461,.T.);
#26=FACE_BOUND('',#478,.T.);
#27=FACE_BOUND('',#483,.T.);
#28=FACE_BOUND('',#493,.T.);
#29=FACE_BOUND('',#498,.T.);
#30=FACE_BOUND('',#504,.T.);
#31=FACE_BOUND('',#507,.T.);
#32=FACE_BOUND('',#523,.T.);
#33=FACE_BOUND('',#524,.T.);
#34=FACE_BOUND('',#525,.T.);
#35=FACE_BOUND('',#526,.T.);
#36=FACE_BOUND('',#528,.T.);
#37=FACE_BOUND('',#529,.T.);
#38=FACE_BOUND('',#530,.T.);
#39=FACE_BOUND('',#531,.T.);
#40=PLANE('',#1266);
#41=PLANE('',#1289);
#42=PLANE('',#1292);
#43=PLANE('',#1293);
#44=PLANE('',#1294);
#45=PLANE('',#1297);
#46=PLANE('',#1300);
#47=PLANE('',#1301);
#48=PLANE('',#1302);
#49=PLANE('',#1311);
#50=PLANE('',#1312);
#51=PLANE('',#1313);
#52=PLANE('',#1314);
#53=PLANE('',#1315);
#54=PLANE('',#1316);
#55=PLANE('',#1317);
#56=PLANE('',#1318);
#57=PLANE('',#1319);
#58=PLANE('',#1320);
#59=PLANE('',#1329);
#60=PLANE('',#1330);
#61=PLANE('',#1331);
#62=PLANE('',#1332);
#63=PLANE('',#1333);
#64=PLANE('',#1334);
#65=PLANE('',#1335);
#66=PLANE('',#1336);
#67=PLANE('',#1337);
#68=PLANE('',#1338);
#69=PLANE('',#1339);
#70=PLANE('',#1340);
#71=PLANE('',#1341);
#72=PLANE('',#1342);
#73=PLANE('',#1346);
#74=PLANE('',#1347);
#75=PLANE('',#1348);
#76=PLANE('',#1349);
#77=PLANE('',#1350);
#78=PLANE('',#1351);
#79=PLANE('',#1352);
#80=PLANE('',#1353);
#81=PLANE('',#1357);
#82=PLANE('',#1358);
#83=PLANE('',#1359);
#84=PLANE('',#1360);
#85=PLANE('',#1361);
#86=PLANE('',#1362);
#87=LINE('',#1717,#221);
#88=LINE('',#1718,#222);
#89=LINE('',#1721,#223);
#90=LINE('',#1723,#224);
#91=LINE('',#1724,#225);
#92=LINE('',#1727,#226);
#93=LINE('',#1729,#227);
#94=LINE('',#1731,#228);
#95=LINE('',#1732,#229);
#96=LINE('',#1735,#230);
#97=LINE('',#1737,#231);
#98=LINE('',#1739,#232);
#99=LINE('',#1740,#233);
#100=LINE('',#1743,#234);
#101=LINE('',#1747,#235);
#102=LINE('',#1750,#236);
#103=LINE('',#1763,#237);
#104=LINE('',#1764,#238);
#105=LINE('',#1773,#239);
#106=LINE('',#1774,#240);
#107=LINE('',#1776,#241);
#108=LINE('',#1777,#242);
#109=LINE('',#1782,#243);
#110=LINE('',#1783,#244);
#111=LINE('',#1787,#245);
#112=LINE('',#1789,#246);
#113=LINE('',#1792,#247);
#114=LINE('',#1796,#248);
#115=LINE('',#1799,#249);
#116=LINE('',#1802,#250);
#117=LINE('',#1804,#251);
#118=LINE('',#1806,#252);
#119=LINE('',#1807,#253);
#120=LINE('',#1810,#254);
#121=LINE('',#1812,#255);
#122=LINE('',#1814,#256);
#123=LINE('',#1815,#257);
#124=LINE('',#1819,#258);
#125=LINE('',#1821,#259);
#126=LINE('',#1822,#260);
#127=LINE('',#1826,#261);
#128=LINE('',#1829,#262);
#129=LINE('',#1830,#263);
#130=LINE('',#1836,#264);
#131=LINE('',#1838,#265);
#132=LINE('',#1840,#266);
#133=LINE('',#1841,#267);
#134=LINE('',#1844,#268);
#135=LINE('',#1846,#269);
#136=LINE('',#1847,#270);
#137=LINE('',#1850,#271);
#138=LINE('',#1851,#272);
#139=LINE('',#1856,#273);
#140=LINE('',#1860,#274);
#141=LINE('',#1865,#275);
#142=LINE('',#1869,#276);
#143=LINE('',#1872,#277);
#144=LINE('',#1874,#278);
#145=LINE('',#1875,#279);
#146=LINE('',#1878,#280);
#147=LINE('',#1879,#281);
#148=LINE('',#1882,#282);
#149=LINE('',#1883,#283);
#150=LINE('',#1885,#284);
#151=LINE('',#1889,#285);
#152=LINE('',#1891,#286);
#153=LINE('',#1892,#287);
#154=LINE('',#1895,#288);
#155=LINE('',#1896,#289);
#156=LINE('',#1899,#290);
#157=LINE('',#1900,#291);
#158=LINE('',#1902,#292);
#159=LINE('',#1908,#293);
#160=LINE('',#1912,#294);
#161=LINE('',#1917,#295);
#162=LINE('',#1921,#296);
#163=LINE('',#1924,#297);
#164=LINE('',#1926,#298);
#165=LINE('',#1927,#299);
#166=LINE('',#1930,#300);
#167=LINE('',#1931,#301);
#168=LINE('',#1934,#302);
#169=LINE('',#1935,#303);
#170=LINE('',#1937,#304);
#171=LINE('',#1941,#305);
#172=LINE('',#1943,#306);
#173=LINE('',#1944,#307);
#174=LINE('',#1947,#308);
#175=LINE('',#1948,#309);
#176=LINE('',#1951,#310);
#177=LINE('',#1952,#311);
#178=LINE('',#1954,#312);
#179=LINE('',#1958,#313);
#180=LINE('',#1959,#314);
#181=LINE('',#1961,#315);
#182=LINE('',#1963,#316);
#183=LINE('',#1969,#317);
#184=LINE('',#1974,#318);
#185=LINE('',#1976,#319);
#186=LINE('',#1978,#320);
#187=LINE('',#1979,#321);
#188=LINE('',#1982,#322);
#189=LINE('',#1984,#323);
#190=LINE('',#1985,#324);
#191=LINE('',#1988,#325);
#192=LINE('',#1990,#326);
#193=LINE('',#1991,#327);
#194=LINE('',#1993,#328);
#195=LINE('',#1994,#329);
#196=LINE('',#1998,#330);
#197=LINE('',#2000,#331);
#198=LINE('',#2002,#332);
#199=LINE('',#2003,#333);
#200=LINE('',#2006,#334);
#201=LINE('',#2008,#335);
#202=LINE('',#2009,#336);
#203=LINE('',#2012,#337);
#204=LINE('',#2014,#338);
#205=LINE('',#2015,#339);
#206=LINE('',#2017,#340);
#207=LINE('',#2018,#341);
#208=LINE('',#2023,#342);
#209=LINE('',#2028,#343);
#210=LINE('',#2030,#344);
#211=LINE('',#2032,#345);
#212=LINE('',#2033,#346);
#213=LINE('',#2036,#347);
#214=LINE('',#2038,#348);
#215=LINE('',#2039,#349);
#216=LINE('',#2042,#350);
#217=LINE('',#2044,#351);
#218=LINE('',#2045,#352);
#219=LINE('',#2047,#353);
#220=LINE('',#2048,#354);
#221=VECTOR('',#1377,10.);
#222=VECTOR('',#1378,10.);
#223=VECTOR('',#1381,10.);
#224=VECTOR('',#1382,10.);
#225=VECTOR('',#1383,10.);
#226=VECTOR('',#1384,10.);
#227=VECTOR('',#1385,10.);
#228=VECTOR('',#1386,10.);
#229=VECTOR('',#1387,10.);
#230=VECTOR('',#1388,10.);
#231=VECTOR('',#1389,10.);
#232=VECTOR('',#1390,10.);
#233=VECTOR('',#1391,10.);
#234=VECTOR('',#1394,10.);
#235=VECTOR('',#1399,10.);
#236=VECTOR('',#1402,10.);
#237=VECTOR('',#1419,10.);
#238=VECTOR('',#1420,10.);
#239=VECTOR('',#1431,10.);
#240=VECTOR('',#1432,10.);
#241=VECTOR('',#1435,10.);
#242=VECTOR('',#1436,10.);
#243=VECTOR('',#1441,10.);
#244=VECTOR('',#1442,10.);
#245=VECTOR('',#1447,10.);
#246=VECTOR('',#1450,10.);
#247=VECTOR('',#1451,10.);
#248=VECTOR('',#1454,10.);
#249=VECTOR('',#1459,10.);
#250=VECTOR('',#1460,10.);
#251=VECTOR('',#1461,10.);
#252=VECTOR('',#1462,10.);
#253=VECTOR('',#1463,10.);
#254=VECTOR('',#1464,10.);
#255=VECTOR('',#1465,10.);
#256=VECTOR('',#1466,10.);
#257=VECTOR('',#1467,10.);
#258=VECTOR('',#1472,10.);
#259=VECTOR('',#1473,10.);
#260=VECTOR('',#1474,10.);
#261=VECTOR('',#1479,10.);
#262=VECTOR('',#1482,10.);
#263=VECTOR('',#1483,10.);
#264=VECTOR('',#1490,10.);
#265=VECTOR('',#1491,10.);
#266=VECTOR('',#1492,10.);
#267=VECTOR('',#1493,10.);
#268=VECTOR('',#1496,10.);
#269=VECTOR('',#1497,10.);
#270=VECTOR('',#1498,10.);
#271=VECTOR('',#1501,10.);
#272=VECTOR('',#1502,10.);
#273=VECTOR('',#1507,0.525);
#274=VECTOR('',#1512,1.05);
#275=VECTOR('',#1517,0.5);
#276=VECTOR('',#1522,1.);
#277=VECTOR('',#1525,10.);
#278=VECTOR('',#1526,10.);
#279=VECTOR('',#1527,10.);
#280=VECTOR('',#1530,10.);
#281=VECTOR('',#1531,10.);
#282=VECTOR('',#1534,10.);
#283=VECTOR('',#1535,10.);
#284=VECTOR('',#1538,10.);
#285=VECTOR('',#1543,10.);
#286=VECTOR('',#1544,10.);
#287=VECTOR('',#1545,10.);
#288=VECTOR('',#1548,10.);
#289=VECTOR('',#1549,10.);
#290=VECTOR('',#1552,10.);
#291=VECTOR('',#1553,10.);
#292=VECTOR('',#1556,10.);
#293=VECTOR('',#1563,0.625);
#294=VECTOR('',#1568,1.25);
#295=VECTOR('',#1573,0.5);
#296=VECTOR('',#1578,1.);
#297=VECTOR('',#1581,10.);
#298=VECTOR('',#1582,10.);
#299=VECTOR('',#1583,10.);
#300=VECTOR('',#1586,10.);
#301=VECTOR('',#1587,10.);
#302=VECTOR('',#1590,10.);
#303=VECTOR('',#1591,10.);
#304=VECTOR('',#1594,10.);
#305=VECTOR('',#1599,10.);
#306=VECTOR('',#1600,10.);
#307=VECTOR('',#1601,10.);
#308=VECTOR('',#1604,10.);
#309=VECTOR('',#1605,10.);
#310=VECTOR('',#1608,10.);
#311=VECTOR('',#1609,10.);
#312=VECTOR('',#1612,10.);
#313=VECTOR('',#1617,10.);
#314=VECTOR('',#1618,10.);
#315=VECTOR('',#1621,10.);
#316=VECTOR('',#1624,10.);
#317=VECTOR('',#1631,2.5);
#318=VECTOR('',#1636,10.);
#319=VECTOR('',#1637,10.);
#320=VECTOR('',#1638,10.);
#321=VECTOR('',#1639,10.);
#322=VECTOR('',#1642,10.);
#323=VECTOR('',#1643,10.);
#324=VECTOR('',#1644,10.);
#325=VECTOR('',#1647,10.);
#326=VECTOR('',#1648,10.);
#327=VECTOR('',#1649,10.);
#328=VECTOR('',#1652,10.);
#329=VECTOR('',#1653,10.);
#330=VECTOR('',#1656,10.);
#331=VECTOR('',#1657,10.);
#332=VECTOR('',#1658,10.);
#333=VECTOR('',#1659,10.);
#334=VECTOR('',#1662,10.);
#335=VECTOR('',#1663,10.);
#336=VECTOR('',#1664,10.);
#337=VECTOR('',#1667,10.);
#338=VECTOR('',#1668,10.);
#339=VECTOR('',#1669,10.);
#340=VECTOR('',#1672,10.);
#341=VECTOR('',#1673,10.);
#342=VECTOR('',#1678,6.);
#343=VECTOR('',#1683,10.);
#344=VECTOR('',#1684,10.);
#345=VECTOR('',#1685,10.);
#346=VECTOR('',#1686,10.);
#347=VECTOR('',#1689,10.);
#348=VECTOR('',#1690,10.);
#349=VECTOR('',#1691,10.);
#350=VECTOR('',#1694,10.);
#351=VECTOR('',#1695,10.);
#352=VECTOR('',#1696,10.);
#353=VECTOR('',#1699,10.);
#354=VECTOR('',#1700,10.);
#355=CYLINDRICAL_SURFACE('',#1264,1.);
#356=CYLINDRICAL_SURFACE('',#1267,1.);
#357=CYLINDRICAL_SURFACE('',#1269,1.);
#358=CYLINDRICAL_SURFACE('',#1278,1.);
#359=CYLINDRICAL_SURFACE('',#1282,1.);
#360=CYLINDRICAL_SURFACE('',#1284,1.);
#361=CYLINDRICAL_SURFACE('',#1285,1.);
#362=CYLINDRICAL_SURFACE('',#1287,1.);
#363=CYLINDRICAL_SURFACE('',#1295,1.6);
#364=CYLINDRICAL_SURFACE('',#1298,1.6);
#365=CYLINDRICAL_SURFACE('',#1305,1.05);
#366=CYLINDRICAL_SURFACE('',#1309,1.);
#367=CYLINDRICAL_SURFACE('',#1323,1.25);
#368=CYLINDRICAL_SURFACE('',#1327,1.);
#369=CYLINDRICAL_SURFACE('',#1343,2.5);
#370=CYLINDRICAL_SURFACE('',#1354,6.);
#371=FACE_OUTER_BOUND('',#442,.T.);
#372=FACE_OUTER_BOUND('',#443,.T.);
#373=FACE_OUTER_BOUND('',#444,.T.);
#374=FACE_OUTER_BOUND('',#447,.T.);
#375=FACE_OUTER_BOUND('',#448,.T.);
#376=FACE_OUTER_BOUND('',#449,.T.);
#377=FACE_OUTER_BOUND('',#450,.T.);
#378=FACE_OUTER_BOUND('',#451,.T.);
#379=FACE_OUTER_BOUND('',#452,.T.);
#380=FACE_OUTER_BOUND('',#453,.T.);
#381=FACE_OUTER_BOUND('',#454,.T.);
#382=FACE_OUTER_BOUND('',#455,.T.);
#383=FACE_OUTER_BOUND('',#456,.T.);
#384=FACE_OUTER_BOUND('',#457,.T.);
#385=FACE_OUTER_BOUND('',#459,.T.);
#386=FACE_OUTER_BOUND('',#462,.T.);
#387=FACE_OUTER_BOUND('',#463,.T.);
#388=FACE_OUTER_BOUND('',#464,.T.);
#389=FACE_OUTER_BOUND('',#465,.T.);
#390=FACE_OUTER_BOUND('',#466,.T.);
#391=FACE_OUTER_BOUND('',#467,.T.);
#392=FACE_OUTER_BOUND('',#468,.T.);
#393=FACE_OUTER_BOUND('',#469,.T.);
#394=FACE_OUTER_BOUND('',#470,.T.);
#395=FACE_OUTER_BOUND('',#471,.T.);
#396=FACE_OUTER_BOUND('',#472,.T.);
#397=FACE_OUTER_BOUND('',#473,.T.);
#398=FACE_OUTER_BOUND('',#474,.T.);
#399=FACE_OUTER_BOUND('',#475,.T.);
#400=FACE_OUTER_BOUND('',#476,.T.);
#401=FACE_OUTER_BOUND('',#477,.T.);
#402=FACE_OUTER_BOUND('',#479,.T.);
#403=FACE_OUTER_BOUND('',#480,.T.);
#404=FACE_OUTER_BOUND('',#481,.T.);
#405=FACE_OUTER_BOUND('',#482,.T.);
#406=FACE_OUTER_BOUND('',#484,.T.);
#407=FACE_OUTER_BOUND('',#485,.T.);
#408=FACE_OUTER_BOUND('',#486,.T.);
#409=FACE_OUTER_BOUND('',#487,.T.);
#410=FACE_OUTER_BOUND('',#488,.T.);
#411=FACE_OUTER_BOUND('',#489,.T.);
#412=FACE_OUTER_BOUND('',#490,.T.);
#413=FACE_OUTER_BOUND('',#491,.T.);
#414=FACE_OUTER_BOUND('',#492,.T.);
#415=FACE_OUTER_BOUND('',#494,.T.);
#416=FACE_OUTER_BOUND('',#495,.T.);
#417=FACE_OUTER_BOUND('',#496,.T.);
#418=FACE_OUTER_BOUND('',#497,.T.);
#419=FACE_OUTER_BOUND('',#499,.T.);
#420=FACE_OUTER_BOUND('',#500,.T.);
#421=FACE_OUTER_BOUND('',#501,.T.);
#422=FACE_OUTER_BOUND('',#502,.T.);
#423=FACE_OUTER_BOUND('',#503,.T.);
#424=FACE_OUTER_BOUND('',#505,.T.);
#425=FACE_OUTER_BOUND('',#506,.T.);
#426=FACE_OUTER_BOUND('',#508,.T.);
#427=FACE_OUTER_BOUND('',#509,.T.);
#428=FACE_OUTER_BOUND('',#510,.T.);
#429=FACE_OUTER_BOUND('',#511,.T.);
#430=FACE_OUTER_BOUND('',#512,.T.);
#431=FACE_OUTER_BOUND('',#513,.T.);
#432=FACE_OUTER_BOUND('',#514,.T.);
#433=FACE_OUTER_BOUND('',#515,.T.);
#434=FACE_OUTER_BOUND('',#516,.T.);
#435=FACE_OUTER_BOUND('',#517,.T.);
#436=FACE_OUTER_BOUND('',#518,.T.);
#437=FACE_OUTER_BOUND('',#519,.T.);
#438=FACE_OUTER_BOUND('',#520,.T.);
#439=FACE_OUTER_BOUND('',#521,.T.);
#440=FACE_OUTER_BOUND('',#522,.T.);
#441=FACE_OUTER_BOUND('',#527,.T.);
#442=EDGE_LOOP('',(#838,#839,#840));
#443=EDGE_LOOP('',(#841,#842,#843,#844));
#444=EDGE_LOOP('',(#845,#846,#847,#848));
#445=EDGE_LOOP('',(#849,#850,#851,#852));
#446=EDGE_LOOP('',(#853,#854,#855,#856));
#447=EDGE_LOOP('',(#857,#858,#859,#860));
#448=EDGE_LOOP('',(#861,#862,#863,#864));
#449=EDGE_LOOP('',(#865,#866,#867));
#450=EDGE_LOOP('',(#868,#869,#870));
#451=EDGE_LOOP('',(#871,#872,#873,#874));
#452=EDGE_LOOP('',(#875,#876,#877));
#453=EDGE_LOOP('',(#878,#879,#880,#881));
#454=EDGE_LOOP('',(#882,#883,#884,#885));
#455=EDGE_LOOP('',(#886,#887,#888,#889));
#456=EDGE_LOOP('',(#890,#891,#892,#893));
#457=EDGE_LOOP('',(#894,#895,#896,#897));
#458=EDGE_LOOP('',(#898,#899,#900,#901));
#459=EDGE_LOOP('',(#902,#903,#904,#905));
#460=EDGE_LOOP('',(#906,#907,#908,#909));
#461=EDGE_LOOP('',(#910,#911,#912,#913));
#462=EDGE_LOOP('',(#914,#915,#916,#917));
#463=EDGE_LOOP('',(#918,#919,#920,#921));
#464=EDGE_LOOP('',(#922,#923,#924,#925));
#465=EDGE_LOOP('',(#926,#927,#928,#929));
#466=EDGE_LOOP('',(#930,#931,#932,#933));
#467=EDGE_LOOP('',(#934,#935,#936,#937));
#468=EDGE_LOOP('',(#938,#939,#940,#941));
#469=EDGE_LOOP('',(#942,#943,#944,#945));
#470=EDGE_LOOP('',(#946,#947,#948));
#471=EDGE_LOOP('',(#949,#950,#951,#952));
#472=EDGE_LOOP('',(#953,#954,#955));
#473=EDGE_LOOP('',(#956,#957,#958,#959));
#474=EDGE_LOOP('',(#960,#961,#962,#963));
#475=EDGE_LOOP('',(#964,#965,#966,#967));
#476=EDGE_LOOP('',(#968,#969,#970,#971));
#477=EDGE_LOOP('',(#972,#973,#974,#975));
#478=EDGE_LOOP('',(#976));
#479=EDGE_LOOP('',(#977,#978,#979,#980));
#480=EDGE_LOOP('',(#981,#982,#983,#984));
#481=EDGE_LOOP('',(#985,#986,#987,#988));
#482=EDGE_LOOP('',(#989,#990,#991,#992));
#483=EDGE_LOOP('',(#993));
#484=EDGE_LOOP('',(#994,#995,#996,#997));
#485=EDGE_LOOP('',(#998,#999,#1000,#1001));
#486=EDGE_LOOP('',(#1002,#1003,#1004));
#487=EDGE_LOOP('',(#1005,#1006,#1007,#1008));
#488=EDGE_LOOP('',(#1009,#1010,#1011));
#489=EDGE_LOOP('',(#1012,#1013,#1014,#1015));
#490=EDGE_LOOP('',(#1016,#1017,#1018,#1019));
#491=EDGE_LOOP('',(#1020,#1021,#1022,#1023));
#492=EDGE_LOOP('',(#1024,#1025,#1026,#1027));
#493=EDGE_LOOP('',(#1028));
#494=EDGE_LOOP('',(#1029,#1030,#1031,#1032));
#495=EDGE_LOOP('',(#1033,#1034,#1035,#1036));
#496=EDGE_LOOP('',(#1037,#1038,#1039,#1040));
#497=EDGE_LOOP('',(#1041,#1042,#1043,#1044));
#498=EDGE_LOOP('',(#1045));
#499=EDGE_LOOP('',(#1046,#1047,#1048,#1049));
#500=EDGE_LOOP('',(#1050,#1051,#1052,#1053));
#501=EDGE_LOOP('',(#1054,#1055,#1056,#1057));
#502=EDGE_LOOP('',(#1058,#1059,#1060,#1061));
#503=EDGE_LOOP('',(#1062,#1063,#1064,#1065));
#504=EDGE_LOOP('',(#1066,#1067,#1068,#1069));
#505=EDGE_LOOP('',(#1070,#1071,#1072,#1073));
#506=EDGE_LOOP('',(#1074,#1075,#1076,#1077,#1078,#1079,#1080,#1081));
#507=EDGE_LOOP('',(#1082,#1083,#1084,#1085));
#508=EDGE_LOOP('',(#1086,#1087,#1088,#1089));
#509=EDGE_LOOP('',(#1090,#1091,#1092,#1093));
#510=EDGE_LOOP('',(#1094,#1095,#1096,#1097));
#511=EDGE_LOOP('',(#1098,#1099,#1100,#1101));
#512=EDGE_LOOP('',(#1102,#1103,#1104,#1105));
#513=EDGE_LOOP('',(#1106,#1107,#1108,#1109));
#514=EDGE_LOOP('',(#1110,#1111,#1112,#1113));
#515=EDGE_LOOP('',(#1114,#1115,#1116,#1117));
#516=EDGE_LOOP('',(#1118,#1119,#1120,#1121));
#517=EDGE_LOOP('',(#1122,#1123,#1124,#1125));
#518=EDGE_LOOP('',(#1126,#1127,#1128,#1129));
#519=EDGE_LOOP('',(#1130,#1131,#1132,#1133));
#520=EDGE_LOOP('',(#1134,#1135,#1136,#1137));
#521=EDGE_LOOP('',(#1138,#1139,#1140,#1141));
#522=EDGE_LOOP('',(#1142,#1143,#1144,#1145));
#523=EDGE_LOOP('',(#1146));
#524=EDGE_LOOP('',(#1147,#1148,#1149,#1150));
#525=EDGE_LOOP('',(#1151,#1152,#1153,#1154));
#526=EDGE_LOOP('',(#1155));
#527=EDGE_LOOP('',(#1156,#1157,#1158,#1159));
#528=EDGE_LOOP('',(#1160));
#529=EDGE_LOOP('',(#1161,#1162,#1163,#1164));
#530=EDGE_LOOP('',(#1165,#1166,#1167,#1168));
#531=EDGE_LOOP('',(#1169));
#532=CIRCLE('',#1261,0.999999999999996);
#533=CIRCLE('',#1262,1.);
#534=CIRCLE('',#1263,1.);
#535=CIRCLE('',#1265,1.);
#536=CIRCLE('',#1268,1.);
#537=CIRCLE('',#1270,0.999999999999996);
#538=CIRCLE('',#1272,0.999999999999996);
#539=CIRCLE('',#1273,1.);
#540=CIRCLE('',#1275,1.);
#541=CIRCLE('',#1276,1.);
#542=CIRCLE('',#1277,1.);
#543=CIRCLE('',#1280,1.);
#544=CIRCLE('',#1281,1.);
#545=CIRCLE('',#1283,1.);
#546=CIRCLE('',#1286,1.);
#547=CIRCLE('',#1288,1.);
#548=CIRCLE('',#1290,1.6);
#549=CIRCLE('',#1291,1.6);
#550=CIRCLE('',#1296,1.6);
#551=CIRCLE('',#1299,1.6);
#552=CIRCLE('',#1304,1.05);
#553=CIRCLE('',#1306,1.05);
#554=CIRCLE('',#1308,1.);
#555=CIRCLE('',#1310,1.);
#556=CIRCLE('',#1322,1.25);
#557=CIRCLE('',#1324,1.25);
#558=CIRCLE('',#1326,1.);
#559=CIRCLE('',#1328,1.);
#560=CIRCLE('',#1344,2.5);
#561=CIRCLE('',#1345,2.5);
#562=CIRCLE('',#1355,6.);
#563=CIRCLE('',#1356,6.);
#564=VERTEX_POINT('',#1707);
#565=VERTEX_POINT('',#1708);
#566=VERTEX_POINT('',#1710);
#567=VERTEX_POINT('',#1714);
#568=VERTEX_POINT('',#1715);
#569=VERTEX_POINT('',#1720);
#570=VERTEX_POINT('',#1722);
#571=VERTEX_POINT('',#1725);
#572=VERTEX_POINT('',#1726);
#573=VERTEX_POINT('',#1728);
#574=VERTEX_POINT('',#1730);
#575=VERTEX_POINT('',#1733);
#576=VERTEX_POINT('',#1734);
#577=VERTEX_POINT('',#1736);
#578=VERTEX_POINT('',#1738);
#579=VERTEX_POINT('',#1742);
#580=VERTEX_POINT('',#1746);
#581=VERTEX_POINT('',#1748);
#582=VERTEX_POINT('',#1752);
#583=VERTEX_POINT('',#1756);
#584=VERTEX_POINT('',#1757);
#585=VERTEX_POINT('',#1759);
#586=VERTEX_POINT('',#1766);
#587=VERTEX_POINT('',#1770);
#588=VERTEX_POINT('',#1771);
#589=VERTEX_POINT('',#1779);
#590=VERTEX_POINT('',#1780);
#591=VERTEX_POINT('',#1785);
#592=VERTEX_POINT('',#1790);
#593=VERTEX_POINT('',#1791);
#594=VERTEX_POINT('',#1793);
#595=VERTEX_POINT('',#1795);
#596=VERTEX_POINT('',#1800);
#597=VERTEX_POINT('',#1801);
#598=VERTEX_POINT('',#1803);
#599=VERTEX_POINT('',#1805);
#600=VERTEX_POINT('',#1808);
#601=VERTEX_POINT('',#1809);
#602=VERTEX_POINT('',#1811);
#603=VERTEX_POINT('',#1813);
#604=VERTEX_POINT('',#1818);
#605=VERTEX_POINT('',#1820);
#606=VERTEX_POINT('',#1824);
#607=VERTEX_POINT('',#1828);
#608=VERTEX_POINT('',#1834);
#609=VERTEX_POINT('',#1835);
#610=VERTEX_POINT('',#1837);
#611=VERTEX_POINT('',#1839);
#612=VERTEX_POINT('',#1843);
#613=VERTEX_POINT('',#1845);
#614=VERTEX_POINT('',#1849);
#615=VERTEX_POINT('',#1853);
#616=VERTEX_POINT('',#1855);
#617=VERTEX_POINT('',#1858);
#618=VERTEX_POINT('',#1862);
#619=VERTEX_POINT('',#1864);
#620=VERTEX_POINT('',#1867);
#621=VERTEX_POINT('',#1871);
#622=VERTEX_POINT('',#1873);
#623=VERTEX_POINT('',#1877);
#624=VERTEX_POINT('',#1881);
#625=VERTEX_POINT('',#1888);
#626=VERTEX_POINT('',#1890);
#627=VERTEX_POINT('',#1894);
#628=VERTEX_POINT('',#1898);
#629=VERTEX_POINT('',#1905);
#630=VERTEX_POINT('',#1907);
#631=VERTEX_POINT('',#1910);
#632=VERTEX_POINT('',#1914);
#633=VERTEX_POINT('',#1916);
#634=VERTEX_POINT('',#1919);
#635=VERTEX_POINT('',#1923);
#636=VERTEX_POINT('',#1925);
#637=VERTEX_POINT('',#1929);
#638=VERTEX_POINT('',#1933);
#639=VERTEX_POINT('',#1940);
#640=VERTEX_POINT('',#1942);
#641=VERTEX_POINT('',#1946);
#642=VERTEX_POINT('',#1950);
#643=VERTEX_POINT('',#1957);
#644=VERTEX_POINT('',#1966);
#645=VERTEX_POINT('',#1968);
#646=VERTEX_POINT('',#1972);
#647=VERTEX_POINT('',#1973);
#648=VERTEX_POINT('',#1975);
#649=VERTEX_POINT('',#1977);
#650=VERTEX_POINT('',#1981);
#651=VERTEX_POINT('',#1983);
#652=VERTEX_POINT('',#1987);
#653=VERTEX_POINT('',#1989);
#654=VERTEX_POINT('',#1996);
#655=VERTEX_POINT('',#1997);
#656=VERTEX_POINT('',#1999);
#657=VERTEX_POINT('',#2001);
#658=VERTEX_POINT('',#2005);
#659=VERTEX_POINT('',#2007);
#660=VERTEX_POINT('',#2011);
#661=VERTEX_POINT('',#2013);
#662=VERTEX_POINT('',#2020);
#663=VERTEX_POINT('',#2022);
#664=VERTEX_POINT('',#2026);
#665=VERTEX_POINT('',#2027);
#666=VERTEX_POINT('',#2029);
#667=VERTEX_POINT('',#2031);
#668=VERTEX_POINT('',#2035);
#669=VERTEX_POINT('',#2037);
#670=VERTEX_POINT('',#2041);
#671=VERTEX_POINT('',#2043);
#672=EDGE_CURVE('',#564,#565,#532,.T.);
#673=EDGE_CURVE('',#565,#566,#533,.T.);
#674=EDGE_CURVE('',#566,#564,#534,.T.);
#675=EDGE_CURVE('',#567,#568,#535,.T.);
#676=EDGE_CURVE('',#568,#565,#87,.T.);
#677=EDGE_CURVE('',#564,#567,#88,.T.);
#678=EDGE_CURVE('',#569,#564,#89,.T.);
#679=EDGE_CURVE('',#570,#569,#90,.T.);
#680=EDGE_CURVE('',#567,#570,#91,.T.);
#681=EDGE_CURVE('',#571,#572,#92,.T.);
#682=EDGE_CURVE('',#572,#573,#93,.T.);
#683=EDGE_CURVE('',#573,#574,#94,.T.);
#684=EDGE_CURVE('',#574,#571,#95,.T.);
#685=EDGE_CURVE('',#575,#576,#96,.T.);
#686=EDGE_CURVE('',#576,#577,#97,.T.);
#687=EDGE_CURVE('',#577,#578,#98,.T.);
#688=EDGE_CURVE('',#578,#575,#99,.T.);
#689=EDGE_CURVE('',#566,#579,#100,.T.);
#690=EDGE_CURVE('',#579,#569,#536,.F.);
#691=EDGE_CURVE('',#565,#580,#101,.T.);
#692=EDGE_CURVE('',#580,#581,#537,.F.);
#693=EDGE_CURVE('',#581,#566,#102,.T.);
#694=EDGE_CURVE('',#569,#582,#538,.F.);
#695=EDGE_CURVE('',#582,#579,#539,.F.);
#696=EDGE_CURVE('',#583,#584,#540,.F.);
#697=EDGE_CURVE('',#585,#583,#541,.F.);
#698=EDGE_CURVE('',#584,#585,#542,.F.);
#699=EDGE_CURVE('',#579,#585,#103,.T.);
#700=EDGE_CURVE('',#583,#582,#104,.T.);
#701=EDGE_CURVE('',#581,#586,#543,.F.);
#702=EDGE_CURVE('',#586,#580,#544,.F.);
#703=EDGE_CURVE('',#587,#588,#545,.T.);
#704=EDGE_CURVE('',#588,#586,#105,.T.);
#705=EDGE_CURVE('',#580,#587,#106,.T.);
#706=EDGE_CURVE('',#585,#581,#107,.T.);
#707=EDGE_CURVE('',#586,#584,#108,.T.);
#708=EDGE_CURVE('',#589,#590,#546,.T.);
#709=EDGE_CURVE('',#590,#583,#109,.T.);
#710=EDGE_CURVE('',#584,#589,#110,.T.);
#711=EDGE_CURVE('',#591,#570,#547,.T.);
#712=EDGE_CURVE('',#582,#591,#111,.T.);
#713=EDGE_CURVE('',#591,#590,#112,.T.);
#714=EDGE_CURVE('',#592,#593,#113,.T.);
#715=EDGE_CURVE('',#593,#594,#548,.T.);
#716=EDGE_CURVE('',#594,#595,#114,.T.);
#717=EDGE_CURVE('',#595,#592,#549,.T.);
#718=EDGE_CURVE('',#589,#588,#115,.T.);
#719=EDGE_CURVE('',#596,#597,#116,.T.);
#720=EDGE_CURVE('',#597,#598,#117,.T.);
#721=EDGE_CURVE('',#598,#599,#118,.T.);
#722=EDGE_CURVE('',#599,#596,#119,.T.);
#723=EDGE_CURVE('',#600,#601,#120,.T.);
#724=EDGE_CURVE('',#601,#602,#121,.T.);
#725=EDGE_CURVE('',#602,#603,#122,.T.);
#726=EDGE_CURVE('',#603,#600,#123,.T.);
#727=EDGE_CURVE('',#604,#594,#124,.T.);
#728=EDGE_CURVE('',#605,#604,#125,.T.);
#729=EDGE_CURVE('',#605,#595,#126,.T.);
#730=EDGE_CURVE('',#606,#605,#550,.T.);
#731=EDGE_CURVE('',#606,#592,#127,.T.);
#732=EDGE_CURVE('',#607,#606,#128,.T.);
#733=EDGE_CURVE('',#607,#593,#129,.T.);
#734=EDGE_CURVE('',#604,#607,#551,.T.);
#735=EDGE_CURVE('',#608,#609,#130,.T.);
#736=EDGE_CURVE('',#610,#608,#131,.T.);
#737=EDGE_CURVE('',#611,#610,#132,.T.);
#738=EDGE_CURVE('',#609,#611,#133,.T.);
#739=EDGE_CURVE('',#611,#612,#134,.F.);
#740=EDGE_CURVE('',#613,#612,#135,.T.);
#741=EDGE_CURVE('',#609,#613,#136,.F.);
#742=EDGE_CURVE('',#610,#614,#137,.T.);
#743=EDGE_CURVE('',#612,#614,#138,.T.);
#744=EDGE_CURVE('',#615,#615,#552,.T.);
#745=EDGE_CURVE('',#615,#616,#139,.T.);
#746=EDGE_CURVE('',#617,#617,#553,.T.);
#747=EDGE_CURVE('',#617,#615,#140,.T.);
#748=EDGE_CURVE('',#618,#618,#554,.T.);
#749=EDGE_CURVE('',#618,#619,#141,.T.);
#750=EDGE_CURVE('',#620,#620,#555,.T.);
#751=EDGE_CURVE('',#620,#618,#142,.T.);
#752=EDGE_CURVE('',#601,#621,#143,.T.);
#753=EDGE_CURVE('',#621,#622,#144,.T.);
#754=EDGE_CURVE('',#602,#622,#145,.T.);
#755=EDGE_CURVE('',#600,#623,#146,.T.);
#756=EDGE_CURVE('',#623,#621,#147,.T.);
#757=EDGE_CURVE('',#603,#624,#148,.T.);
#758=EDGE_CURVE('',#624,#623,#149,.T.);
#759=EDGE_CURVE('',#622,#624,#150,.T.);
#760=EDGE_CURVE('',#597,#625,#151,.T.);
#761=EDGE_CURVE('',#625,#626,#152,.T.);
#762=EDGE_CURVE('',#598,#626,#153,.T.);
#763=EDGE_CURVE('',#596,#627,#154,.T.);
#764=EDGE_CURVE('',#627,#625,#155,.T.);
#765=EDGE_CURVE('',#599,#628,#156,.T.);
#766=EDGE_CURVE('',#628,#627,#157,.T.);
#767=EDGE_CURVE('',#626,#628,#158,.T.);
#768=EDGE_CURVE('',#629,#629,#556,.T.);
#769=EDGE_CURVE('',#629,#630,#159,.T.);
#770=EDGE_CURVE('',#631,#631,#557,.T.);
#771=EDGE_CURVE('',#631,#629,#160,.T.);
#772=EDGE_CURVE('',#632,#632,#558,.T.);
#773=EDGE_CURVE('',#632,#633,#161,.T.);
#774=EDGE_CURVE('',#634,#634,#559,.T.);
#775=EDGE_CURVE('',#634,#632,#162,.T.);
#776=EDGE_CURVE('',#575,#635,#163,.T.);
#777=EDGE_CURVE('',#636,#635,#164,.T.);
#778=EDGE_CURVE('',#576,#636,#165,.T.);
#779=EDGE_CURVE('',#637,#636,#166,.T.);
#780=EDGE_CURVE('',#577,#637,#167,.T.);
#781=EDGE_CURVE('',#638,#637,#168,.T.);
#782=EDGE_CURVE('',#578,#638,#169,.T.);
#783=EDGE_CURVE('',#635,#638,#170,.T.);
#784=EDGE_CURVE('',#571,#639,#171,.T.);
#785=EDGE_CURVE('',#640,#639,#172,.T.);
#786=EDGE_CURVE('',#572,#640,#173,.T.);
#787=EDGE_CURVE('',#641,#640,#174,.T.);
#788=EDGE_CURVE('',#573,#641,#175,.T.);
#789=EDGE_CURVE('',#642,#641,#176,.T.);
#790=EDGE_CURVE('',#574,#642,#177,.T.);
#791=EDGE_CURVE('',#639,#642,#178,.T.);
#792=EDGE_CURVE('',#608,#643,#179,.F.);
#793=EDGE_CURVE('',#614,#643,#180,.T.);
#794=EDGE_CURVE('',#643,#613,#181,.T.);
#795=EDGE_CURVE('',#587,#568,#182,.T.);
#796=EDGE_CURVE('',#644,#644,#560,.T.);
#797=EDGE_CURVE('',#644,#645,#183,.T.);
#798=EDGE_CURVE('',#645,#645,#561,.T.);
#799=EDGE_CURVE('',#646,#647,#184,.T.);
#800=EDGE_CURVE('',#648,#646,#185,.T.);
#801=EDGE_CURVE('',#649,#648,#186,.T.);
#802=EDGE_CURVE('',#649,#647,#187,.T.);
#803=EDGE_CURVE('',#647,#650,#188,.T.);
#804=EDGE_CURVE('',#651,#649,#189,.T.);
#805=EDGE_CURVE('',#651,#650,#190,.T.);
#806=EDGE_CURVE('',#650,#652,#191,.T.);
#807=EDGE_CURVE('',#653,#651,#192,.T.);
#808=EDGE_CURVE('',#653,#652,#193,.T.);
#809=EDGE_CURVE('',#652,#646,#194,.T.);
#810=EDGE_CURVE('',#648,#653,#195,.T.);
#811=EDGE_CURVE('',#654,#655,#196,.T.);
#812=EDGE_CURVE('',#656,#654,#197,.T.);
#813=EDGE_CURVE('',#657,#656,#198,.T.);
#814=EDGE_CURVE('',#657,#655,#199,.T.);
#815=EDGE_CURVE('',#655,#658,#200,.T.);
#816=EDGE_CURVE('',#659,#657,#201,.T.);
#817=EDGE_CURVE('',#659,#658,#202,.T.);
#818=EDGE_CURVE('',#658,#660,#203,.T.);
#819=EDGE_CURVE('',#661,#659,#204,.T.);
#820=EDGE_CURVE('',#661,#660,#205,.T.);
#821=EDGE_CURVE('',#660,#654,#206,.T.);
#822=EDGE_CURVE('',#656,#661,#207,.T.);
#823=EDGE_CURVE('',#662,#662,#562,.T.);
#824=EDGE_CURVE('',#662,#663,#208,.T.);
#825=EDGE_CURVE('',#663,#663,#563,.T.);
#826=EDGE_CURVE('',#664,#665,#209,.T.);
#827=EDGE_CURVE('',#664,#666,#210,.T.);
#828=EDGE_CURVE('',#667,#666,#211,.T.);
#829=EDGE_CURVE('',#665,#667,#212,.T.);
#830=EDGE_CURVE('',#665,#668,#213,.T.);
#831=EDGE_CURVE('',#669,#667,#214,.T.);
#832=EDGE_CURVE('',#668,#669,#215,.T.);
#833=EDGE_CURVE('',#668,#670,#216,.T.);
#834=EDGE_CURVE('',#671,#669,#217,.T.);
#835=EDGE_CURVE('',#670,#671,#218,.T.);
#836=EDGE_CURVE('',#670,#664,#219,.T.);
#837=EDGE_CURVE('',#666,#671,#220,.T.);
#838=ORIENTED_EDGE('',*,*,#672,.T.);
#839=ORIENTED_EDGE('',*,*,#673,.T.);
#840=ORIENTED_EDGE('',*,*,#674,.T.);
#841=ORIENTED_EDGE('',*,*,#675,.T.);
#842=ORIENTED_EDGE('',*,*,#676,.T.);
#843=ORIENTED_EDGE('',*,*,#672,.F.);
#844=ORIENTED_EDGE('',*,*,#677,.T.);
#845=ORIENTED_EDGE('',*,*,#677,.F.);
#846=ORIENTED_EDGE('',*,*,#678,.F.);
#847=ORIENTED_EDGE('',*,*,#679,.F.);
#848=ORIENTED_EDGE('',*,*,#680,.F.);
#849=ORIENTED_EDGE('',*,*,#681,.T.);
#850=ORIENTED_EDGE('',*,*,#682,.T.);
#851=ORIENTED_EDGE('',*,*,#683,.T.);
#852=ORIENTED_EDGE('',*,*,#684,.T.);
#853=ORIENTED_EDGE('',*,*,#685,.T.);
#854=ORIENTED_EDGE('',*,*,#686,.T.);
#855=ORIENTED_EDGE('',*,*,#687,.T.);
#856=ORIENTED_EDGE('',*,*,#688,.T.);
#857=ORIENTED_EDGE('',*,*,#674,.F.);
#858=ORIENTED_EDGE('',*,*,#689,.T.);
#859=ORIENTED_EDGE('',*,*,#690,.T.);
#860=ORIENTED_EDGE('',*,*,#678,.T.);
#861=ORIENTED_EDGE('',*,*,#673,.F.);
#862=ORIENTED_EDGE('',*,*,#691,.T.);
#863=ORIENTED_EDGE('',*,*,#692,.T.);
#864=ORIENTED_EDGE('',*,*,#693,.T.);
#865=ORIENTED_EDGE('',*,*,#694,.F.);
#866=ORIENTED_EDGE('',*,*,#690,.F.);
#867=ORIENTED_EDGE('',*,*,#695,.F.);
#868=ORIENTED_EDGE('',*,*,#696,.F.);
#869=ORIENTED_EDGE('',*,*,#697,.F.);
#870=ORIENTED_EDGE('',*,*,#698,.F.);
#871=ORIENTED_EDGE('',*,*,#695,.T.);
#872=ORIENTED_EDGE('',*,*,#699,.T.);
#873=ORIENTED_EDGE('',*,*,#697,.T.);
#874=ORIENTED_EDGE('',*,*,#700,.T.);
#875=ORIENTED_EDGE('',*,*,#701,.F.);
#876=ORIENTED_EDGE('',*,*,#692,.F.);
#877=ORIENTED_EDGE('',*,*,#702,.F.);
#878=ORIENTED_EDGE('',*,*,#703,.T.);
#879=ORIENTED_EDGE('',*,*,#704,.T.);
#880=ORIENTED_EDGE('',*,*,#702,.T.);
#881=ORIENTED_EDGE('',*,*,#705,.T.);
#882=ORIENTED_EDGE('',*,*,#698,.T.);
#883=ORIENTED_EDGE('',*,*,#706,.T.);
#884=ORIENTED_EDGE('',*,*,#701,.T.);
#885=ORIENTED_EDGE('',*,*,#707,.T.);
#886=ORIENTED_EDGE('',*,*,#708,.T.);
#887=ORIENTED_EDGE('',*,*,#709,.T.);
#888=ORIENTED_EDGE('',*,*,#696,.T.);
#889=ORIENTED_EDGE('',*,*,#710,.T.);
#890=ORIENTED_EDGE('',*,*,#711,.T.);
#891=ORIENTED_EDGE('',*,*,#679,.T.);
#892=ORIENTED_EDGE('',*,*,#694,.T.);
#893=ORIENTED_EDGE('',*,*,#712,.T.);
#894=ORIENTED_EDGE('',*,*,#712,.F.);
#895=ORIENTED_EDGE('',*,*,#700,.F.);
#896=ORIENTED_EDGE('',*,*,#709,.F.);
#897=ORIENTED_EDGE('',*,*,#713,.F.);
#898=ORIENTED_EDGE('',*,*,#714,.T.);
#899=ORIENTED_EDGE('',*,*,#715,.T.);
#900=ORIENTED_EDGE('',*,*,#716,.T.);
#901=ORIENTED_EDGE('',*,*,#717,.T.);
#902=ORIENTED_EDGE('',*,*,#710,.F.);
#903=ORIENTED_EDGE('',*,*,#707,.F.);
#904=ORIENTED_EDGE('',*,*,#704,.F.);
#905=ORIENTED_EDGE('',*,*,#718,.F.);
#906=ORIENTED_EDGE('',*,*,#719,.T.);
#907=ORIENTED_EDGE('',*,*,#720,.T.);
#908=ORIENTED_EDGE('',*,*,#721,.T.);
#909=ORIENTED_EDGE('',*,*,#722,.T.);
#910=ORIENTED_EDGE('',*,*,#723,.T.);
#911=ORIENTED_EDGE('',*,*,#724,.T.);
#912=ORIENTED_EDGE('',*,*,#725,.T.);
#913=ORIENTED_EDGE('',*,*,#726,.T.);
#914=ORIENTED_EDGE('',*,*,#693,.F.);
#915=ORIENTED_EDGE('',*,*,#706,.F.);
#916=ORIENTED_EDGE('',*,*,#699,.F.);
#917=ORIENTED_EDGE('',*,*,#689,.F.);
#918=ORIENTED_EDGE('',*,*,#716,.F.);
#919=ORIENTED_EDGE('',*,*,#727,.F.);
#920=ORIENTED_EDGE('',*,*,#728,.F.);
#921=ORIENTED_EDGE('',*,*,#729,.T.);
#922=ORIENTED_EDGE('',*,*,#717,.F.);
#923=ORIENTED_EDGE('',*,*,#729,.F.);
#924=ORIENTED_EDGE('',*,*,#730,.F.);
#925=ORIENTED_EDGE('',*,*,#731,.T.);
#926=ORIENTED_EDGE('',*,*,#714,.F.);
#927=ORIENTED_EDGE('',*,*,#731,.F.);
#928=ORIENTED_EDGE('',*,*,#732,.F.);
#929=ORIENTED_EDGE('',*,*,#733,.T.);
#930=ORIENTED_EDGE('',*,*,#715,.F.);
#931=ORIENTED_EDGE('',*,*,#733,.F.);
#932=ORIENTED_EDGE('',*,*,#734,.F.);
#933=ORIENTED_EDGE('',*,*,#727,.T.);
#934=ORIENTED_EDGE('',*,*,#735,.F.);
#935=ORIENTED_EDGE('',*,*,#736,.F.);
#936=ORIENTED_EDGE('',*,*,#737,.F.);
#937=ORIENTED_EDGE('',*,*,#738,.F.);
#938=ORIENTED_EDGE('',*,*,#739,.T.);
#939=ORIENTED_EDGE('',*,*,#740,.F.);
#940=ORIENTED_EDGE('',*,*,#741,.F.);
#941=ORIENTED_EDGE('',*,*,#738,.T.);
#942=ORIENTED_EDGE('',*,*,#742,.T.);
#943=ORIENTED_EDGE('',*,*,#743,.F.);
#944=ORIENTED_EDGE('',*,*,#739,.F.);
#945=ORIENTED_EDGE('',*,*,#737,.T.);
#946=ORIENTED_EDGE('',*,*,#744,.F.);
#947=ORIENTED_EDGE('',*,*,#745,.T.);
#948=ORIENTED_EDGE('',*,*,#745,.F.);
#949=ORIENTED_EDGE('',*,*,#746,.F.);
#950=ORIENTED_EDGE('',*,*,#747,.T.);
#951=ORIENTED_EDGE('',*,*,#744,.T.);
#952=ORIENTED_EDGE('',*,*,#747,.F.);
#953=ORIENTED_EDGE('',*,*,#748,.F.);
#954=ORIENTED_EDGE('',*,*,#749,.T.);
#955=ORIENTED_EDGE('',*,*,#749,.F.);
#956=ORIENTED_EDGE('',*,*,#750,.F.);
#957=ORIENTED_EDGE('',*,*,#751,.T.);
#958=ORIENTED_EDGE('',*,*,#748,.T.);
#959=ORIENTED_EDGE('',*,*,#751,.F.);
#960=ORIENTED_EDGE('',*,*,#724,.F.);
#961=ORIENTED_EDGE('',*,*,#752,.T.);
#962=ORIENTED_EDGE('',*,*,#753,.T.);
#963=ORIENTED_EDGE('',*,*,#754,.F.);
#964=ORIENTED_EDGE('',*,*,#723,.F.);
#965=ORIENTED_EDGE('',*,*,#755,.T.);
#966=ORIENTED_EDGE('',*,*,#756,.T.);
#967=ORIENTED_EDGE('',*,*,#752,.F.);
#968=ORIENTED_EDGE('',*,*,#726,.F.);
#969=ORIENTED_EDGE('',*,*,#757,.T.);
#970=ORIENTED_EDGE('',*,*,#758,.T.);
#971=ORIENTED_EDGE('',*,*,#755,.F.);
#972=ORIENTED_EDGE('',*,*,#725,.F.);
#973=ORIENTED_EDGE('',*,*,#754,.T.);
#974=ORIENTED_EDGE('',*,*,#759,.T.);
#975=ORIENTED_EDGE('',*,*,#757,.F.);
#976=ORIENTED_EDGE('',*,*,#746,.T.);
#977=ORIENTED_EDGE('',*,*,#753,.F.);
#978=ORIENTED_EDGE('',*,*,#756,.F.);
#979=ORIENTED_EDGE('',*,*,#758,.F.);
#980=ORIENTED_EDGE('',*,*,#759,.F.);
#981=ORIENTED_EDGE('',*,*,#720,.F.);
#982=ORIENTED_EDGE('',*,*,#760,.T.);
#983=ORIENTED_EDGE('',*,*,#761,.T.);
#984=ORIENTED_EDGE('',*,*,#762,.F.);
#985=ORIENTED_EDGE('',*,*,#719,.F.);
#986=ORIENTED_EDGE('',*,*,#763,.T.);
#987=ORIENTED_EDGE('',*,*,#764,.T.);
#988=ORIENTED_EDGE('',*,*,#760,.F.);
#989=ORIENTED_EDGE('',*,*,#722,.F.);
#990=ORIENTED_EDGE('',*,*,#765,.T.);
#991=ORIENTED_EDGE('',*,*,#766,.T.);
#992=ORIENTED_EDGE('',*,*,#763,.F.);
#993=ORIENTED_EDGE('',*,*,#750,.T.);
#994=ORIENTED_EDGE('',*,*,#721,.F.);
#995=ORIENTED_EDGE('',*,*,#762,.T.);
#996=ORIENTED_EDGE('',*,*,#767,.T.);
#997=ORIENTED_EDGE('',*,*,#765,.F.);
#998=ORIENTED_EDGE('',*,*,#761,.F.);
#999=ORIENTED_EDGE('',*,*,#764,.F.);
#1000=ORIENTED_EDGE('',*,*,#766,.F.);
#1001=ORIENTED_EDGE('',*,*,#767,.F.);
#1002=ORIENTED_EDGE('',*,*,#768,.F.);
#1003=ORIENTED_EDGE('',*,*,#769,.T.);
#1004=ORIENTED_EDGE('',*,*,#769,.F.);
#1005=ORIENTED_EDGE('',*,*,#770,.F.);
#1006=ORIENTED_EDGE('',*,*,#771,.T.);
#1007=ORIENTED_EDGE('',*,*,#768,.T.);
#1008=ORIENTED_EDGE('',*,*,#771,.F.);
#1009=ORIENTED_EDGE('',*,*,#772,.F.);
#1010=ORIENTED_EDGE('',*,*,#773,.T.);
#1011=ORIENTED_EDGE('',*,*,#773,.F.);
#1012=ORIENTED_EDGE('',*,*,#774,.F.);
#1013=ORIENTED_EDGE('',*,*,#775,.T.);
#1014=ORIENTED_EDGE('',*,*,#772,.T.);
#1015=ORIENTED_EDGE('',*,*,#775,.F.);
#1016=ORIENTED_EDGE('',*,*,#685,.F.);
#1017=ORIENTED_EDGE('',*,*,#776,.T.);
#1018=ORIENTED_EDGE('',*,*,#777,.F.);
#1019=ORIENTED_EDGE('',*,*,#778,.F.);
#1020=ORIENTED_EDGE('',*,*,#686,.F.);
#1021=ORIENTED_EDGE('',*,*,#778,.T.);
#1022=ORIENTED_EDGE('',*,*,#779,.F.);
#1023=ORIENTED_EDGE('',*,*,#780,.F.);
#1024=ORIENTED_EDGE('',*,*,#687,.F.);
#1025=ORIENTED_EDGE('',*,*,#780,.T.);
#1026=ORIENTED_EDGE('',*,*,#781,.F.);
#1027=ORIENTED_EDGE('',*,*,#782,.F.);
#1028=ORIENTED_EDGE('',*,*,#774,.T.);
#1029=ORIENTED_EDGE('',*,*,#688,.F.);
#1030=ORIENTED_EDGE('',*,*,#782,.T.);
#1031=ORIENTED_EDGE('',*,*,#783,.F.);
#1032=ORIENTED_EDGE('',*,*,#776,.F.);
#1033=ORIENTED_EDGE('',*,*,#783,.T.);
#1034=ORIENTED_EDGE('',*,*,#781,.T.);
#1035=ORIENTED_EDGE('',*,*,#779,.T.);
#1036=ORIENTED_EDGE('',*,*,#777,.T.);
#1037=ORIENTED_EDGE('',*,*,#681,.F.);
#1038=ORIENTED_EDGE('',*,*,#784,.T.);
#1039=ORIENTED_EDGE('',*,*,#785,.F.);
#1040=ORIENTED_EDGE('',*,*,#786,.F.);
#1041=ORIENTED_EDGE('',*,*,#682,.F.);
#1042=ORIENTED_EDGE('',*,*,#786,.T.);
#1043=ORIENTED_EDGE('',*,*,#787,.F.);
#1044=ORIENTED_EDGE('',*,*,#788,.F.);
#1045=ORIENTED_EDGE('',*,*,#770,.T.);
#1046=ORIENTED_EDGE('',*,*,#683,.F.);
#1047=ORIENTED_EDGE('',*,*,#788,.T.);
#1048=ORIENTED_EDGE('',*,*,#789,.F.);
#1049=ORIENTED_EDGE('',*,*,#790,.F.);
#1050=ORIENTED_EDGE('',*,*,#684,.F.);
#1051=ORIENTED_EDGE('',*,*,#790,.T.);
#1052=ORIENTED_EDGE('',*,*,#791,.F.);
#1053=ORIENTED_EDGE('',*,*,#784,.F.);
#1054=ORIENTED_EDGE('',*,*,#791,.T.);
#1055=ORIENTED_EDGE('',*,*,#789,.T.);
#1056=ORIENTED_EDGE('',*,*,#787,.T.);
#1057=ORIENTED_EDGE('',*,*,#785,.T.);
#1058=ORIENTED_EDGE('',*,*,#792,.T.);
#1059=ORIENTED_EDGE('',*,*,#793,.F.);
#1060=ORIENTED_EDGE('',*,*,#742,.F.);
#1061=ORIENTED_EDGE('',*,*,#736,.T.);
#1062=ORIENTED_EDGE('',*,*,#741,.T.);
#1063=ORIENTED_EDGE('',*,*,#794,.F.);
#1064=ORIENTED_EDGE('',*,*,#792,.F.);
#1065=ORIENTED_EDGE('',*,*,#735,.T.);
#1066=ORIENTED_EDGE('',*,*,#732,.T.);
#1067=ORIENTED_EDGE('',*,*,#730,.T.);
#1068=ORIENTED_EDGE('',*,*,#728,.T.);
#1069=ORIENTED_EDGE('',*,*,#734,.T.);
#1070=ORIENTED_EDGE('',*,*,#676,.F.);
#1071=ORIENTED_EDGE('',*,*,#795,.F.);
#1072=ORIENTED_EDGE('',*,*,#705,.F.);
#1073=ORIENTED_EDGE('',*,*,#691,.F.);
#1074=ORIENTED_EDGE('',*,*,#675,.F.);
#1075=ORIENTED_EDGE('',*,*,#680,.T.);
#1076=ORIENTED_EDGE('',*,*,#711,.F.);
#1077=ORIENTED_EDGE('',*,*,#713,.T.);
#1078=ORIENTED_EDGE('',*,*,#708,.F.);
#1079=ORIENTED_EDGE('',*,*,#718,.T.);
#1080=ORIENTED_EDGE('',*,*,#703,.F.);
#1081=ORIENTED_EDGE('',*,*,#795,.T.);
#1082=ORIENTED_EDGE('',*,*,#793,.T.);
#1083=ORIENTED_EDGE('',*,*,#794,.T.);
#1084=ORIENTED_EDGE('',*,*,#740,.T.);
#1085=ORIENTED_EDGE('',*,*,#743,.T.);
#1086=ORIENTED_EDGE('',*,*,#796,.F.);
#1087=ORIENTED_EDGE('',*,*,#797,.T.);
#1088=ORIENTED_EDGE('',*,*,#798,.F.);
#1089=ORIENTED_EDGE('',*,*,#797,.F.);
#1090=ORIENTED_EDGE('',*,*,#799,.F.);
#1091=ORIENTED_EDGE('',*,*,#800,.F.);
#1092=ORIENTED_EDGE('',*,*,#801,.F.);
#1093=ORIENTED_EDGE('',*,*,#802,.T.);
#1094=ORIENTED_EDGE('',*,*,#803,.F.);
#1095=ORIENTED_EDGE('',*,*,#802,.F.);
#1096=ORIENTED_EDGE('',*,*,#804,.F.);
#1097=ORIENTED_EDGE('',*,*,#805,.T.);
#1098=ORIENTED_EDGE('',*,*,#806,.F.);
#1099=ORIENTED_EDGE('',*,*,#805,.F.);
#1100=ORIENTED_EDGE('',*,*,#807,.F.);
#1101=ORIENTED_EDGE('',*,*,#808,.T.);
#1102=ORIENTED_EDGE('',*,*,#809,.F.);
#1103=ORIENTED_EDGE('',*,*,#808,.F.);
#1104=ORIENTED_EDGE('',*,*,#810,.F.);
#1105=ORIENTED_EDGE('',*,*,#800,.T.);
#1106=ORIENTED_EDGE('',*,*,#811,.F.);
#1107=ORIENTED_EDGE('',*,*,#812,.F.);
#1108=ORIENTED_EDGE('',*,*,#813,.F.);
#1109=ORIENTED_EDGE('',*,*,#814,.T.);
#1110=ORIENTED_EDGE('',*,*,#815,.F.);
#1111=ORIENTED_EDGE('',*,*,#814,.F.);
#1112=ORIENTED_EDGE('',*,*,#816,.F.);
#1113=ORIENTED_EDGE('',*,*,#817,.T.);
#1114=ORIENTED_EDGE('',*,*,#818,.F.);
#1115=ORIENTED_EDGE('',*,*,#817,.F.);
#1116=ORIENTED_EDGE('',*,*,#819,.F.);
#1117=ORIENTED_EDGE('',*,*,#820,.T.);
#1118=ORIENTED_EDGE('',*,*,#821,.F.);
#1119=ORIENTED_EDGE('',*,*,#820,.F.);
#1120=ORIENTED_EDGE('',*,*,#822,.F.);
#1121=ORIENTED_EDGE('',*,*,#812,.T.);
#1122=ORIENTED_EDGE('',*,*,#823,.F.);
#1123=ORIENTED_EDGE('',*,*,#824,.T.);
#1124=ORIENTED_EDGE('',*,*,#825,.F.);
#1125=ORIENTED_EDGE('',*,*,#824,.F.);
#1126=ORIENTED_EDGE('',*,*,#826,.F.);
#1127=ORIENTED_EDGE('',*,*,#827,.T.);
#1128=ORIENTED_EDGE('',*,*,#828,.F.);
#1129=ORIENTED_EDGE('',*,*,#829,.F.);
#1130=ORIENTED_EDGE('',*,*,#830,.F.);
#1131=ORIENTED_EDGE('',*,*,#829,.T.);
#1132=ORIENTED_EDGE('',*,*,#831,.F.);
#1133=ORIENTED_EDGE('',*,*,#832,.F.);
#1134=ORIENTED_EDGE('',*,*,#833,.F.);
#1135=ORIENTED_EDGE('',*,*,#832,.T.);
#1136=ORIENTED_EDGE('',*,*,#834,.F.);
#1137=ORIENTED_EDGE('',*,*,#835,.F.);
#1138=ORIENTED_EDGE('',*,*,#836,.F.);
#1139=ORIENTED_EDGE('',*,*,#835,.T.);
#1140=ORIENTED_EDGE('',*,*,#837,.F.);
#1141=ORIENTED_EDGE('',*,*,#827,.F.);
#1142=ORIENTED_EDGE('',*,*,#837,.T.);
#1143=ORIENTED_EDGE('',*,*,#834,.T.);
#1144=ORIENTED_EDGE('',*,*,#831,.T.);
#1145=ORIENTED_EDGE('',*,*,#828,.T.);
#1146=ORIENTED_EDGE('',*,*,#796,.T.);
#1147=ORIENTED_EDGE('',*,*,#807,.T.);
#1148=ORIENTED_EDGE('',*,*,#804,.T.);
#1149=ORIENTED_EDGE('',*,*,#801,.T.);
#1150=ORIENTED_EDGE('',*,*,#810,.T.);
#1151=ORIENTED_EDGE('',*,*,#819,.T.);
#1152=ORIENTED_EDGE('',*,*,#816,.T.);
#1153=ORIENTED_EDGE('',*,*,#813,.T.);
#1154=ORIENTED_EDGE('',*,*,#822,.T.);
#1155=ORIENTED_EDGE('',*,*,#823,.T.);
#1156=ORIENTED_EDGE('',*,*,#836,.T.);
#1157=ORIENTED_EDGE('',*,*,#826,.T.);
#1158=ORIENTED_EDGE('',*,*,#830,.T.);
#1159=ORIENTED_EDGE('',*,*,#833,.T.);
#1160=ORIENTED_EDGE('',*,*,#798,.T.);
#1161=ORIENTED_EDGE('',*,*,#806,.T.);
#1162=ORIENTED_EDGE('',*,*,#809,.T.);
#1163=ORIENTED_EDGE('',*,*,#799,.T.);
#1164=ORIENTED_EDGE('',*,*,#803,.T.);
#1165=ORIENTED_EDGE('',*,*,#818,.T.);
#1166=ORIENTED_EDGE('',*,*,#821,.T.);
#1167=ORIENTED_EDGE('',*,*,#811,.T.);
#1168=ORIENTED_EDGE('',*,*,#815,.T.);
#1169=ORIENTED_EDGE('',*,*,#825,.T.);
#1170=SPHERICAL_SURFACE('',#1260,1.);
#1171=SPHERICAL_SURFACE('',#1271,1.);
#1172=SPHERICAL_SURFACE('',#1274,1.);
#1173=SPHERICAL_SURFACE('',#1279,0.999999999999996);
#1174=ADVANCED_FACE('',(#371),#1170,.T.);
#1175=ADVANCED_FACE('',(#372),#355,.T.);
#1176=ADVANCED_FACE('',(#373,#21,#22),#40,.T.);
#1177=ADVANCED_FACE('',(#374),#356,.T.);
#1178=ADVANCED_FACE('',(#375),#357,.T.);
#1179=ADVANCED_FACE('',(#376),#1171,.T.);
#1180=ADVANCED_FACE('',(#377),#1172,.T.);
#1181=ADVANCED_FACE('',(#378),#358,.T.);
#1182=ADVANCED_FACE('',(#379),#1173,.T.);
#1183=ADVANCED_FACE('',(#380),#359,.T.);
#1184=ADVANCED_FACE('',(#381),#360,.T.);
#1185=ADVANCED_FACE('',(#382),#361,.T.);
#1186=ADVANCED_FACE('',(#383),#362,.T.);
#1187=ADVANCED_FACE('',(#384,#23),#41,.T.);
#1188=ADVANCED_FACE('',(#385,#24,#25),#42,.T.);
#1189=ADVANCED_FACE('',(#386),#43,.F.);
#1190=ADVANCED_FACE('',(#387),#44,.F.);
#1191=ADVANCED_FACE('',(#388),#363,.F.);
#1192=ADVANCED_FACE('',(#389),#45,.F.);
#1193=ADVANCED_FACE('',(#390),#364,.F.);
#1194=ADVANCED_FACE('',(#391),#46,.F.);
#1195=ADVANCED_FACE('',(#392),#47,.F.);
#1196=ADVANCED_FACE('',(#393),#48,.F.);
#1197=ADVANCED_FACE('',(#394),#17,.F.);
#1198=ADVANCED_FACE('',(#395),#365,.F.);
#1199=ADVANCED_FACE('',(#396),#18,.F.);
#1200=ADVANCED_FACE('',(#397),#366,.F.);
#1201=ADVANCED_FACE('',(#398),#49,.F.);
#1202=ADVANCED_FACE('',(#399),#50,.F.);
#1203=ADVANCED_FACE('',(#400),#51,.F.);
#1204=ADVANCED_FACE('',(#401,#26),#52,.F.);
#1205=ADVANCED_FACE('',(#402),#53,.F.);
#1206=ADVANCED_FACE('',(#403),#54,.F.);
#1207=ADVANCED_FACE('',(#404),#55,.F.);
#1208=ADVANCED_FACE('',(#405,#27),#56,.F.);
#1209=ADVANCED_FACE('',(#406),#57,.F.);
#1210=ADVANCED_FACE('',(#407),#58,.F.);
#1211=ADVANCED_FACE('',(#408),#19,.F.);
#1212=ADVANCED_FACE('',(#409),#367,.F.);
#1213=ADVANCED_FACE('',(#410),#20,.F.);
#1214=ADVANCED_FACE('',(#411),#368,.F.);
#1215=ADVANCED_FACE('',(#412),#59,.T.);
#1216=ADVANCED_FACE('',(#413),#60,.T.);
#1217=ADVANCED_FACE('',(#414,#28),#61,.T.);
#1218=ADVANCED_FACE('',(#415),#62,.T.);
#1219=ADVANCED_FACE('',(#416),#63,.T.);
#1220=ADVANCED_FACE('',(#417),#64,.T.);
#1221=ADVANCED_FACE('',(#418,#29),#65,.T.);
#1222=ADVANCED_FACE('',(#419),#66,.T.);
#1223=ADVANCED_FACE('',(#420),#67,.T.);
#1224=ADVANCED_FACE('',(#421),#68,.T.);
#1225=ADVANCED_FACE('',(#422),#69,.F.);
#1226=ADVANCED_FACE('',(#423,#30),#70,.F.);
#1227=ADVANCED_FACE('',(#424),#71,.T.);
#1228=ADVANCED_FACE('',(#425,#31),#72,.T.);
#1229=ADVANCED_FACE('',(#426),#369,.F.);
#1230=ADVANCED_FACE('',(#427),#73,.F.);
#1231=ADVANCED_FACE('',(#428),#74,.F.);
#1232=ADVANCED_FACE('',(#429),#75,.F.);
#1233=ADVANCED_FACE('',(#430),#76,.F.);
#1234=ADVANCED_FACE('',(#431),#77,.F.);
#1235=ADVANCED_FACE('',(#432),#78,.F.);
#1236=ADVANCED_FACE('',(#433),#79,.F.);
#1237=ADVANCED_FACE('',(#434),#80,.F.);
#1238=ADVANCED_FACE('',(#435),#370,.F.);
#1239=ADVANCED_FACE('',(#436),#81,.T.);
#1240=ADVANCED_FACE('',(#437),#82,.T.);
#1241=ADVANCED_FACE('',(#438),#83,.T.);
#1242=ADVANCED_FACE('',(#439),#84,.T.);
#1243=ADVANCED_FACE('',(#440,#32,#33,#34,#35),#85,.T.);
#1244=ADVANCED_FACE('',(#441,#36,#37,#38,#39),#86,.F.);
#1245=CLOSED_SHELL('',(#1174,#1175,#1176,#1177,#1178,#1179,#1180,#1181,
#1182,#1183,#1184,#1185,#1186,#1187,#1188,#1189,#1190,#1191,#1192,#1193,
#1194,#1195,#1196,#1197,#1198,#1199,#1200,#1201,#1202,#1203,#1204,#1205,
#1206,#1207,#1208,#1209,#1210,#1211,#1212,#1213,#1214,#1215,#1216,#1217,
#1218,#1219,#1220,#1221,#1222,#1223,#1224,#1225,#1226,#1227,#1228));
#1246=CLOSED_SHELL('',(#1229,#1230,#1231,#1232,#1233,#1234,#1235,#1236,
#1237,#1238,#1239,#1240,#1241,#1242,#1243,#1244));
#1247=DERIVED_UNIT_ELEMENT(#1249,1.);
#1248=DERIVED_UNIT_ELEMENT(#2056,-3.);
#1249=(
MASS_UNIT()
NAMED_UNIT(*)
SI_UNIT(.KILO.,.GRAM.)
);
#1250=DERIVED_UNIT((#1247,#1248));
#1251=MEASURE_REPRESENTATION_ITEM('density measure',
POSITIVE_RATIO_MEASURE(7850.),#1250);
#1252=PROPERTY_DEFINITION_REPRESENTATION(#1257,#1254);
#1253=PROPERTY_DEFINITION_REPRESENTATION(#1258,#1255);
#1254=REPRESENTATION('material name',(#1256),#2053);
#1255=REPRESENTATION('density',(#1251),#2053);
#1256=DESCRIPTIVE_REPRESENTATION_ITEM('Steel','Steel');
#1257=PROPERTY_DEFINITION('material property','material name',#2063);
#1258=PROPERTY_DEFINITION('material property','density of part',#2063);
#1259=AXIS2_PLACEMENT_3D('',#1705,#1363,#1364);
#1260=AXIS2_PLACEMENT_3D('',#1706,#1365,#1366);
#1261=AXIS2_PLACEMENT_3D('',#1709,#1367,#1368);
#1262=AXIS2_PLACEMENT_3D('',#1711,#1369,#1370);
#1263=AXIS2_PLACEMENT_3D('',#1712,#1371,#1372);
#1264=AXIS2_PLACEMENT_3D('',#1713,#1373,#1374);
#1265=AXIS2_PLACEMENT_3D('',#1716,#1375,#1376);
#1266=AXIS2_PLACEMENT_3D('',#1719,#1379,#1380);
#1267=AXIS2_PLACEMENT_3D('',#1741,#1392,#1393);
#1268=AXIS2_PLACEMENT_3D('',#1744,#1395,#1396);
#1269=AXIS2_PLACEMENT_3D('',#1745,#1397,#1398);
#1270=AXIS2_PLACEMENT_3D('',#1749,#1400,#1401);
#1271=AXIS2_PLACEMENT_3D('',#1751,#1403,#1404);
#1272=AXIS2_PLACEMENT_3D('',#1753,#1405,#1406);
#1273=AXIS2_PLACEMENT_3D('',#1754,#1407,#1408);
#1274=AXIS2_PLACEMENT_3D('',#1755,#1409,#1410);
#1275=AXIS2_PLACEMENT_3D('',#1758,#1411,#1412);
#1276=AXIS2_PLACEMENT_3D('',#1760,#1413,#1414);
#1277=AXIS2_PLACEMENT_3D('',#1761,#1415,#1416);
#1278=AXIS2_PLACEMENT_3D('',#1762,#1417,#1418);
#1279=AXIS2_PLACEMENT_3D('',#1765,#1421,#1422);
#1280=AXIS2_PLACEMENT_3D('',#1767,#1423,#1424);
#1281=AXIS2_PLACEMENT_3D('',#1768,#1425,#1426);
#1282=AXIS2_PLACEMENT_3D('',#1769,#1427,#1428);
#1283=AXIS2_PLACEMENT_3D('',#1772,#1429,#1430);
#1284=AXIS2_PLACEMENT_3D('',#1775,#1433,#1434);
#1285=AXIS2_PLACEMENT_3D('',#1778,#1437,#1438);
#1286=AXIS2_PLACEMENT_3D('',#1781,#1439,#1440);
#1287=AXIS2_PLACEMENT_3D('',#1784,#1443,#1444);
#1288=AXIS2_PLACEMENT_3D('',#1786,#1445,#1446);
#1289=AXIS2_PLACEMENT_3D('',#1788,#1448,#1449);
#1290=AXIS2_PLACEMENT_3D('',#1794,#1452,#1453);
#1291=AXIS2_PLACEMENT_3D('',#1797,#1455,#1456);
#1292=AXIS2_PLACEMENT_3D('',#1798,#1457,#1458);
#1293=AXIS2_PLACEMENT_3D('',#1816,#1468,#1469);
#1294=AXIS2_PLACEMENT_3D('',#1817,#1470,#1471);
#1295=AXIS2_PLACEMENT_3D('',#1823,#1475,#1476);
#1296=AXIS2_PLACEMENT_3D('',#1825,#1477,#1478);
#1297=AXIS2_PLACEMENT_3D('',#1827,#1480,#1481);
#1298=AXIS2_PLACEMENT_3D('',#1831,#1484,#1485);
#1299=AXIS2_PLACEMENT_3D('',#1832,#1486,#1487);
#1300=AXIS2_PLACEMENT_3D('',#1833,#1488,#1489);
#1301=AXIS2_PLACEMENT_3D('',#1842,#1494,#1495);
#1302=AXIS2_PLACEMENT_3D('',#1848,#1499,#1500);
#1303=AXIS2_PLACEMENT_3D('',#1852,#1503,#1504);
#1304=AXIS2_PLACEMENT_3D('',#1854,#1505,#1506);
#1305=AXIS2_PLACEMENT_3D('',#1857,#1508,#1509);
#1306=AXIS2_PLACEMENT_3D('',#1859,#1510,#1511);
#1307=AXIS2_PLACEMENT_3D('',#1861,#1513,#1514);
#1308=AXIS2_PLACEMENT_3D('',#1863,#1515,#1516);
#1309=AXIS2_PLACEMENT_3D('',#1866,#1518,#1519);
#1310=AXIS2_PLACEMENT_3D('',#1868,#1520,#1521);
#1311=AXIS2_PLACEMENT_3D('',#1870,#1523,#1524);
#1312=AXIS2_PLACEMENT_3D('',#1876,#1528,#1529);
#1313=AXIS2_PLACEMENT_3D('',#1880,#1532,#1533);
#1314=AXIS2_PLACEMENT_3D('',#1884,#1536,#1537);
#1315=AXIS2_PLACEMENT_3D('',#1886,#1539,#1540);
#1316=AXIS2_PLACEMENT_3D('',#1887,#1541,#1542);
#1317=AXIS2_PLACEMENT_3D('',#1893,#1546,#1547);
#1318=AXIS2_PLACEMENT_3D('',#1897,#1550,#1551);
#1319=AXIS2_PLACEMENT_3D('',#1901,#1554,#1555);
#1320=AXIS2_PLACEMENT_3D('',#1903,#1557,#1558);
#1321=AXIS2_PLACEMENT_3D('',#1904,#1559,#1560);
#1322=AXIS2_PLACEMENT_3D('',#1906,#1561,#1562);
#1323=AXIS2_PLACEMENT_3D('',#1909,#1564,#1565);
#1324=AXIS2_PLACEMENT_3D('',#1911,#1566,#1567);
#1325=AXIS2_PLACEMENT_3D('',#1913,#1569,#1570);
#1326=AXIS2_PLACEMENT_3D('',#1915,#1571,#1572);
#1327=AXIS2_PLACEMENT_3D('',#1918,#1574,#1575);
#1328=AXIS2_PLACEMENT_3D('',#1920,#1576,#1577);
#1329=AXIS2_PLACEMENT_3D('',#1922,#1579,#1580);
#1330=AXIS2_PLACEMENT_3D('',#1928,#1584,#1585);
#1331=AXIS2_PLACEMENT_3D('',#1932,#1588,#1589);
#1332=AXIS2_PLACEMENT_3D('',#1936,#1592,#1593);
#1333=AXIS2_PLACEMENT_3D('',#1938,#1595,#1596);
#1334=AXIS2_PLACEMENT_3D('',#1939,#1597,#1598);
#1335=AXIS2_PLACEMENT_3D('',#1945,#1602,#1603);
#1336=AXIS2_PLACEMENT_3D('',#1949,#1606,#1607);
#1337=AXIS2_PLACEMENT_3D('',#1953,#1610,#1611);
#1338=AXIS2_PLACEMENT_3D('',#1955,#1613,#1614);
#1339=AXIS2_PLACEMENT_3D('',#1956,#1615,#1616);
#1340=AXIS2_PLACEMENT_3D('',#1960,#1619,#1620);
#1341=AXIS2_PLACEMENT_3D('',#1962,#1622,#1623);
#1342=AXIS2_PLACEMENT_3D('',#1964,#1625,#1626);
#1343=AXIS2_PLACEMENT_3D('',#1965,#1627,#1628);
#1344=AXIS2_PLACEMENT_3D('',#1967,#1629,#1630);
#1345=AXIS2_PLACEMENT_3D('',#1970,#1632,#1633);
#1346=AXIS2_PLACEMENT_3D('',#1971,#1634,#1635);
#1347=AXIS2_PLACEMENT_3D('',#1980,#1640,#1641);
#1348=AXIS2_PLACEMENT_3D('',#1986,#1645,#1646);
#1349=AXIS2_PLACEMENT_3D('',#1992,#1650,#1651);
#1350=AXIS2_PLACEMENT_3D('',#1995,#1654,#1655);
#1351=AXIS2_PLACEMENT_3D('',#2004,#1660,#1661);
#1352=AXIS2_PLACEMENT_3D('',#2010,#1665,#1666);
#1353=AXIS2_PLACEMENT_3D('',#2016,#1670,#1671);
#1354=AXIS2_PLACEMENT_3D('',#2019,#1674,#1675);
#1355=AXIS2_PLACEMENT_3D('',#2021,#1676,#1677);
#1356=AXIS2_PLACEMENT_3D('',#2024,#1679,#1680);
#1357=AXIS2_PLACEMENT_3D('',#2025,#1681,#1682);
#1358=AXIS2_PLACEMENT_3D('',#2034,#1687,#1688);
#1359=AXIS2_PLACEMENT_3D('',#2040,#1692,#1693);
#1360=AXIS2_PLACEMENT_3D('',#2046,#1697,#1698);
#1361=AXIS2_PLACEMENT_3D('',#2049,#1701,#1702);
#1362=AXIS2_PLACEMENT_3D('',#2050,#1703,#1704);
#1363=DIRECTION('axis',(0.,0.,1.));
#1364=DIRECTION('refdir',(1.,0.,0.));
#1365=DIRECTION('center_axis',(-0.816496580927727,-0.408248290463864,0.40824829046386));
#1366=DIRECTION('ref_axis',(0.577350269189624,-0.577350269189629,0.577350269189624));
#1367=DIRECTION('center_axis',(0.,-1.,0.));
#1368=DIRECTION('ref_axis',(1.,0.,0.));
#1369=DIRECTION('center_axis',(1.,0.,0.));
#1370=DIRECTION('ref_axis',(0.,-0.707106781186549,0.707106781186546));
#1371=DIRECTION('center_axis',(0.,0.,1.));
#1372=DIRECTION('ref_axis',(0.707106781186546,-0.707106781186549,0.));
#1373=DIRECTION('center_axis',(0.,1.,0.));
#1374=DIRECTION('ref_axis',(0.707106781186548,0.,0.707106781186548));
#1375=DIRECTION('center_axis',(0.,-1.,0.));
#1376=DIRECTION('ref_axis',(0.707106781186548,0.,0.707106781186548));
#1377=DIRECTION('',(0.,-1.,0.));
#1378=DIRECTION('',(0.,1.,0.));
#1379=DIRECTION('center_axis',(1.,0.,0.));
#1380=DIRECTION('ref_axis',(0.,0.,-1.));
#1381=DIRECTION('',(0.,0.,1.));
#1382=DIRECTION('',(0.,-1.,0.));
#1383=DIRECTION('',(0.,0.,-1.));
#1384=DIRECTION('',(0.,0.,-1.));
#1385=DIRECTION('',(0.,-1.,0.));
#1386=DIRECTION('',(0.,0.,1.));
#1387=DIRECTION('',(0.,1.,0.));
#1388=DIRECTION('',(0.,-1.,0.));
#1389=DIRECTION('',(0.,0.,1.));
#1390=DIRECTION('',(0.,1.,0.));
#1391=DIRECTION('',(0.,0.,-1.));
#1392=DIRECTION('center_axis',(0.,0.,1.));
#1393=DIRECTION('ref_axis',(0.707106781186546,-0.707106781186549,0.));
#1394=DIRECTION('',(0.,0.,-1.));
#1395=DIRECTION('center_axis',(0.,0.,-1.));
#1396=DIRECTION('ref_axis',(0.,-1.,0.));
#1397=DIRECTION('center_axis',(-1.,0.,0.));
#1398=DIRECTION('ref_axis',(0.,-0.707106781186549,0.707106781186546));
#1399=DIRECTION('',(-1.,0.,0.));
#1400=DIRECTION('center_axis',(-1.,0.,0.));
#1401=DIRECTION('ref_axis',(0.,0.,1.));
#1402=DIRECTION('',(1.,0.,0.));
#1403=DIRECTION('center_axis',(-0.40824829046386,-0.816496580927727,0.408248290463865));
#1404=DIRECTION('ref_axis',(0.577350269189623,-0.577350269189627,-0.577350269189627));
#1405=DIRECTION('center_axis',(0.,-1.,0.));
#1406=DIRECTION('ref_axis',(1.,0.,0.));
#1407=DIRECTION('center_axis',(1.,0.,0.));
#1408=DIRECTION('ref_axis',(0.,0.,-1.));
#1409=DIRECTION('center_axis',(0.408248290463864,0.408248290463863,-0.816496580927726));
#1410=DIRECTION('ref_axis',(-0.577350269189626,-0.577350269189625,-0.577350269189626));
#1411=DIRECTION('center_axis',(0.,-1.,0.));
#1412=DIRECTION('ref_axis',(0.,0.,-1.));
#1413=DIRECTION('center_axis',(-1.,0.,0.));
#1414=DIRECTION('ref_axis',(0.,-1.,0.));
#1415=DIRECTION('center_axis',(0.,0.,-1.));
#1416=DIRECTION('ref_axis',(-1.,0.,0.));
#1417=DIRECTION('center_axis',(1.,0.,0.));
#1418=DIRECTION('ref_axis',(0.,-0.707106781186547,-0.707106781186548));
#1419=DIRECTION('',(-1.,0.,0.));
#1420=DIRECTION('',(1.,0.,0.));
#1421=DIRECTION('center_axis',(-0.816496580927726,0.408248290463864,-0.408248290463861));
#1422=DIRECTION('ref_axis',(-0.577350269189626,-0.577350269189627,0.577350269189625));
#1423=DIRECTION('center_axis',(0.,0.,1.));
#1424=DIRECTION('ref_axis',(0.,-1.,0.));
#1425=DIRECTION('center_axis',(0.,-1.,0.));
#1426=DIRECTION('ref_axis',(-1.,0.,0.));
#1427=DIRECTION('center_axis',(0.,1.,0.));
#1428=DIRECTION('ref_axis',(-0.707106781186549,0.,0.707106781186546));
#1429=DIRECTION('center_axis',(0.,-1.,0.));
#1430=DIRECTION('ref_axis',(-0.707106781186549,0.,0.707106781186546));
#1431=DIRECTION('',(0.,-1.,0.));
#1432=DIRECTION('',(0.,1.,0.));
#1433=DIRECTION('center_axis',(0.,0.,-1.));
#1434=DIRECTION('ref_axis',(-0.707106781186547,-0.707106781186548,0.));
#1435=DIRECTION('',(0.,0.,1.));
#1436=DIRECTION('',(0.,0.,-1.));
#1437=DIRECTION('center_axis',(0.,1.,0.));
#1438=DIRECTION('ref_axis',(-0.707106781186548,0.,-0.707106781186547));
#1439=DIRECTION('center_axis',(0.,-1.,0.));
#1440=DIRECTION('ref_axis',(-0.707106781186548,0.,-0.707106781186547));
#1441=DIRECTION('',(0.,-1.,0.));
#1442=DIRECTION('',(0.,1.,0.));
#1443=DIRECTION('center_axis',(0.,1.,0.));
#1444=DIRECTION('ref_axis',(0.707106781186546,0.,-0.707106781186549));
#1445=DIRECTION('center_axis',(0.,-1.,0.));
#1446=DIRECTION('ref_axis',(0.707106781186546,0.,-0.707106781186549));
#1447=DIRECTION('',(0.,1.,0.));
#1448=DIRECTION('center_axis',(0.,0.,-1.));
#1449=DIRECTION('ref_axis',(-1.,0.,0.));
#1450=DIRECTION('',(-1.,0.,0.));
#1451=DIRECTION('',(1.,0.,0.));
#1452=DIRECTION('center_axis',(0.,0.,1.));
#1453=DIRECTION('ref_axis',(0.,-1.,0.));
#1454=DIRECTION('',(-1.,0.,0.));
#1455=DIRECTION('center_axis',(0.,0.,1.));
#1456=DIRECTION('ref_axis',(0.,1.,0.));
#1457=DIRECTION('center_axis',(-1.,0.,0.));
#1458=DIRECTION('ref_axis',(0.,0.,1.));
#1459=DIRECTION('',(0.,0.,1.));
#1460=DIRECTION('',(0.,0.,1.));
#1461=DIRECTION('',(0.,-1.,0.));
#1462=DIRECTION('',(0.,0.,-1.));
#1463=DIRECTION('',(0.,1.,0.));
#1464=DIRECTION('',(0.,1.,0.));
#1465=DIRECTION('',(0.,0.,1.));
#1466=DIRECTION('',(0.,-1.,0.));
#1467=DIRECTION('',(0.,0.,-1.));
#1468=DIRECTION('center_axis',(0.,1.,0.));
#1469=DIRECTION('ref_axis',(1.,0.,0.));
#1470=DIRECTION('center_axis',(0.,1.,0.));
#1471=DIRECTION('ref_axis',(1.,0.,0.));
#1472=DIRECTION('',(0.,0.,-1.));
#1473=DIRECTION('',(1.,0.,0.));
#1474=DIRECTION('',(0.,0.,-1.));
#1475=DIRECTION('center_axis',(0.,0.,-1.));
#1476=DIRECTION('ref_axis',(0.,1.,0.));
#1477=DIRECTION('center_axis',(0.,0.,-1.));
#1478=DIRECTION('ref_axis',(0.,1.,0.));
#1479=DIRECTION('',(0.,0.,-1.));
#1480=DIRECTION('center_axis',(0.,-1.,0.));
#1481=DIRECTION('ref_axis',(-1.,0.,0.));
#1482=DIRECTION('',(-1.,0.,0.));
#1483=DIRECTION('',(0.,0.,-1.));
#1484=DIRECTION('center_axis',(0.,0.,-1.));
#1485=DIRECTION('ref_axis',(0.,-1.,0.));
#1486=DIRECTION('center_axis',(0.,0.,-1.));
#1487=DIRECTION('ref_axis',(0.,-1.,0.));
#1488=DIRECTION('center_axis',(0.,-1.,0.));
#1489=DIRECTION('ref_axis',(0.,0.,-1.));
#1490=DIRECTION('',(1.,0.,-9.96353996458474E-17));
#1491=DIRECTION('',(1.26161707343768E-17,0.,-1.));
#1492=DIRECTION('',(-1.,0.,0.));
#1493=DIRECTION('',(0.,0.,1.));
#1494=DIRECTION('center_axis',(1.,0.,0.));
#1495=DIRECTION('ref_axis',(0.,0.,-1.));
#1496=DIRECTION('',(0.,-1.,0.));
#1497=DIRECTION('',(0.,0.,1.));
#1498=DIRECTION('',(0.,-1.,0.));
#1499=DIRECTION('center_axis',(0.,0.,1.));
#1500=DIRECTION('ref_axis',(1.,0.,0.));
#1501=DIRECTION('',(0.,1.,0.));
#1502=DIRECTION('',(-1.,0.,0.));
#1503=DIRECTION('center_axis',(0.,0.,1.));
#1504=DIRECTION('ref_axis',(1.,0.,0.));
#1505=DIRECTION('center_axis',(0.,0.,-1.));
#1506=DIRECTION('ref_axis',(1.,0.,0.));
#1507=DIRECTION('',(0.857167300702112,-1.04972719113862E-16,-0.515038074910054));
#1508=DIRECTION('center_axis',(0.,0.,-1.));
#1509=DIRECTION('ref_axis',(1.,0.,0.));
#1510=DIRECTION('center_axis',(0.,0.,-1.));
#1511=DIRECTION('ref_axis',(1.,0.,0.));
#1512=DIRECTION('',(0.,0.,-1.));
#1513=DIRECTION('center_axis',(0.,0.,-1.));
#1514=DIRECTION('ref_axis',(-1.,0.,0.));
#1515=DIRECTION('center_axis',(0.,0.,1.));
#1516=DIRECTION('ref_axis',(-1.,0.,0.));
#1517=DIRECTION('',(-0.857167300702112,-1.04972719113862E-16,0.515038074910054));
#1518=DIRECTION('center_axis',(0.,0.,1.));
#1519=DIRECTION('ref_axis',(-1.,0.,0.));
#1520=DIRECTION('center_axis',(0.,0.,1.));
#1521=DIRECTION('ref_axis',(-1.,0.,0.));
#1522=DIRECTION('',(0.,0.,1.));
#1523=DIRECTION('center_axis',(0.,-1.,0.));
#1524=DIRECTION('ref_axis',(0.,0.,1.));
#1525=DIRECTION('',(-1.,0.,0.));
#1526=DIRECTION('',(0.,0.,1.));
#1527=DIRECTION('',(-1.,0.,0.));
#1528=DIRECTION('center_axis',(0.,0.,1.));
#1529=DIRECTION('ref_axis',(0.,1.,0.));
#1530=DIRECTION('',(-1.,0.,0.));
#1531=DIRECTION('',(0.,1.,0.));
#1532=DIRECTION('center_axis',(0.,1.,0.));
#1533=DIRECTION('ref_axis',(0.,0.,-1.));
#1534=DIRECTION('',(-1.,0.,0.));
#1535=DIRECTION('',(0.,0.,-1.));
#1536=DIRECTION('center_axis',(0.,0.,-1.));
#1537=DIRECTION('ref_axis',(0.,-1.,0.));
#1538=DIRECTION('',(0.,-1.,0.));
#1539=DIRECTION('center_axis',(1.,0.,0.));
#1540=DIRECTION('ref_axis',(0.,0.,-1.));
#1541=DIRECTION('center_axis',(0.,0.,-1.));
#1542=DIRECTION('ref_axis',(0.,-1.,0.));
#1543=DIRECTION('',(-1.,0.,0.));
#1544=DIRECTION('',(0.,-1.,0.));
#1545=DIRECTION('',(-1.,0.,0.));
#1546=DIRECTION('center_axis',(0.,-1.,0.));
#1547=DIRECTION('ref_axis',(0.,0.,1.));
#1548=DIRECTION('',(-1.,0.,0.));
#1549=DIRECTION('',(0.,0.,1.));
#1550=DIRECTION('center_axis',(0.,0.,1.));
#1551=DIRECTION('ref_axis',(0.,1.,0.));
#1552=DIRECTION('',(-1.,0.,0.));
#1553=DIRECTION('',(0.,1.,0.));
#1554=DIRECTION('center_axis',(0.,1.,0.));
#1555=DIRECTION('ref_axis',(0.,0.,-1.));
#1556=DIRECTION('',(0.,0.,-1.));
#1557=DIRECTION('center_axis',(1.,0.,0.));
#1558=DIRECTION('ref_axis',(0.,0.,-1.));
#1559=DIRECTION('center_axis',(0.,0.,-1.));
#1560=DIRECTION('ref_axis',(-1.,0.,0.));
#1561=DIRECTION('center_axis',(0.,0.,1.));
#1562=DIRECTION('ref_axis',(-1.,0.,0.));
#1563=DIRECTION('',(-0.857167300702112,-1.04972719113862E-16,0.515038074910054));
#1564=DIRECTION('center_axis',(0.,0.,1.));
#1565=DIRECTION('ref_axis',(-1.,0.,0.));
#1566=DIRECTION('center_axis',(0.,0.,1.));
#1567=DIRECTION('ref_axis',(-1.,0.,0.));
#1568=DIRECTION('',(0.,0.,1.));
#1569=DIRECTION('center_axis',(0.,0.,1.));
#1570=DIRECTION('ref_axis',(1.,0.,0.));
#1571=DIRECTION('center_axis',(0.,0.,-1.));
#1572=DIRECTION('ref_axis',(1.,0.,0.));
#1573=DIRECTION('',(0.857167300702112,-1.04972719113862E-16,-0.515038074910054));
#1574=DIRECTION('center_axis',(0.,0.,-1.));
#1575=DIRECTION('ref_axis',(1.,0.,0.));
#1576=DIRECTION('center_axis',(0.,0.,-1.));
#1577=DIRECTION('ref_axis',(1.,0.,0.));
#1578=DIRECTION('',(0.,0.,-1.));
#1579=DIRECTION('center_axis',(0.,0.,-1.));
#1580=DIRECTION('ref_axis',(0.,1.,0.));
#1581=DIRECTION('',(1.,0.,0.));
#1582=DIRECTION('',(0.,1.,0.));
#1583=DIRECTION('',(1.,0.,0.));
#1584=DIRECTION('center_axis',(0.,-1.,0.));
#1585=DIRECTION('ref_axis',(0.,0.,-1.));
#1586=DIRECTION('',(0.,0.,-1.));
#1587=DIRECTION('',(1.,0.,0.));
#1588=DIRECTION('center_axis',(0.,0.,1.));
#1589=DIRECTION('ref_axis',(0.,-1.,0.));
#1590=DIRECTION('',(0.,-1.,0.));
#1591=DIRECTION('',(1.,0.,0.));
#1592=DIRECTION('center_axis',(0.,1.,0.));
#1593=DIRECTION('ref_axis',(0.,0.,1.));
#1594=DIRECTION('',(0.,0.,1.));
#1595=DIRECTION('center_axis',(1.,0.,0.));
#1596=DIRECTION('ref_axis',(0.,0.,-1.));
#1597=DIRECTION('center_axis',(0.,1.,0.));
#1598=DIRECTION('ref_axis',(0.,0.,1.));
#1599=DIRECTION('',(1.,0.,0.));
#1600=DIRECTION('',(0.,0.,1.));
#1601=DIRECTION('',(1.,0.,0.));
#1602=DIRECTION('center_axis',(0.,0.,-1.));
#1603=DIRECTION('ref_axis',(0.,1.,0.));
#1604=DIRECTION('',(0.,1.,0.));
#1605=DIRECTION('',(1.,0.,0.));
#1606=DIRECTION('center_axis',(0.,-1.,0.));
#1607=DIRECTION('ref_axis',(0.,0.,-1.));
#1608=DIRECTION('',(0.,0.,-1.));
#1609=DIRECTION('',(1.,0.,0.));
#1610=DIRECTION('center_axis',(0.,0.,1.));
#1611=DIRECTION('ref_axis',(0.,-1.,0.));
#1612=DIRECTION('',(0.,-1.,0.));
#1613=DIRECTION('center_axis',(1.,0.,0.));
#1614=DIRECTION('ref_axis',(0.,0.,-1.));
#1615=DIRECTION('center_axis',(-1.,0.,0.));
#1616=DIRECTION('ref_axis',(0.,0.,1.));
#1617=DIRECTION('',(0.,-1.,0.));
#1618=DIRECTION('',(0.,0.,-1.));
#1619=DIRECTION('center_axis',(0.,0.,-1.));
#1620=DIRECTION('ref_axis',(-1.,0.,0.));
#1621=DIRECTION('',(1.,0.,0.));
#1622=DIRECTION('center_axis',(0.,0.,1.));
#1623=DIRECTION('ref_axis',(1.,0.,0.));
#1624=DIRECTION('',(1.,0.,0.));
#1625=DIRECTION('center_axis',(0.,1.,0.));
#1626=DIRECTION('ref_axis',(0.,0.,1.));
#1627=DIRECTION('center_axis',(0.,-1.,0.));
#1628=DIRECTION('ref_axis',(0.,0.,1.));
#1629=DIRECTION('center_axis',(0.,-1.,0.));
#1630=DIRECTION('ref_axis',(0.,0.,1.));
#1631=DIRECTION('',(0.,-1.,0.));
#1632=DIRECTION('center_axis',(0.,1.,0.));
#1633=DIRECTION('ref_axis',(0.,0.,1.));
#1634=DIRECTION('center_axis',(1.,0.,0.));
#1635=DIRECTION('ref_axis',(0.,0.,1.));
#1636=DIRECTION('',(0.,0.,-1.));
#1637=DIRECTION('',(0.,-1.,0.));
#1638=DIRECTION('',(0.,0.,1.));
#1639=DIRECTION('',(0.,-1.,0.));
#1640=DIRECTION('center_axis',(0.,0.,-1.));
#1641=DIRECTION('ref_axis',(1.,0.,0.));
#1642=DIRECTION('',(-1.,0.,0.));
#1643=DIRECTION('',(1.,0.,0.));
#1644=DIRECTION('',(0.,-1.,0.));
#1645=DIRECTION('center_axis',(-1.,0.,0.));
#1646=DIRECTION('ref_axis',(0.,0.,-1.));
#1647=DIRECTION('',(0.,0.,1.));
#1648=DIRECTION('',(0.,0.,-1.));
#1649=DIRECTION('',(0.,-1.,0.));
#1650=DIRECTION('center_axis',(0.,0.,1.));
#1651=DIRECTION('ref_axis',(-1.,0.,0.));
#1652=DIRECTION('',(1.,0.,0.));
#1653=DIRECTION('',(-1.,0.,0.));
#1654=DIRECTION('center_axis',(-1.,0.,0.));
#1655=DIRECTION('ref_axis',(0.,0.,-1.));
#1656=DIRECTION('',(0.,0.,1.));
#1657=DIRECTION('',(0.,-1.,0.));
#1658=DIRECTION('',(0.,0.,-1.));
#1659=DIRECTION('',(0.,-1.,0.));
#1660=DIRECTION('center_axis',(0.,0.,1.));
#1661=DIRECTION('ref_axis',(-1.,0.,0.));
#1662=DIRECTION('',(1.,0.,0.));
#1663=DIRECTION('',(-1.,0.,0.));
#1664=DIRECTION('',(0.,-1.,0.));
#1665=DIRECTION('center_axis',(1.,0.,0.));
#1666=DIRECTION('ref_axis',(0.,0.,1.));
#1667=DIRECTION('',(0.,0.,-1.));
#1668=DIRECTION('',(0.,0.,1.));
#1669=DIRECTION('',(0.,-1.,0.));
#1670=DIRECTION('center_axis',(0.,0.,-1.));
#1671=DIRECTION('ref_axis',(1.,0.,0.));
#1672=DIRECTION('',(-1.,0.,0.));
#1673=DIRECTION('',(1.,0.,0.));
#1674=DIRECTION('center_axis',(0.,-1.,0.));
#1675=DIRECTION('ref_axis',(0.,0.,1.));
#1676=DIRECTION('center_axis',(0.,-1.,0.));
#1677=DIRECTION('ref_axis',(0.,0.,1.));
#1678=DIRECTION('',(0.,-1.,0.));
#1679=DIRECTION('center_axis',(0.,1.,0.));
#1680=DIRECTION('ref_axis',(0.,0.,1.));
#1681=DIRECTION('center_axis',(-1.,0.,0.));
#1682=DIRECTION('ref_axis',(0.,0.,1.));
#1683=DIRECTION('',(0.,0.,-1.));
#1684=DIRECTION('',(0.,1.,0.));
#1685=DIRECTION('',(0.,0.,1.));
#1686=DIRECTION('',(0.,1.,0.));
#1687=DIRECTION('center_axis',(0.,0.,-1.));
#1688=DIRECTION('ref_axis',(-1.,0.,0.));
#1689=DIRECTION('',(1.,0.,0.));
#1690=DIRECTION('',(-1.,0.,0.));
#1691=DIRECTION('',(0.,1.,0.));
#1692=DIRECTION('center_axis',(1.,0.,0.));
#1693=DIRECTION('ref_axis',(0.,0.,-1.));
#1694=DIRECTION('',(0.,0.,1.));
#1695=DIRECTION('',(0.,0.,-1.));
#1696=DIRECTION('',(0.,1.,0.));
#1697=DIRECTION('center_axis',(0.,0.,1.));
#1698=DIRECTION('ref_axis',(1.,0.,0.));
#1699=DIRECTION('',(-1.,0.,0.));
#1700=DIRECTION('',(1.,0.,0.));
#1701=DIRECTION('center_axis',(0.,1.,0.));
#1702=DIRECTION('ref_axis',(0.,0.,1.));
#1703=DIRECTION('center_axis',(0.,1.,0.));
#1704=DIRECTION('ref_axis',(1.,0.,0.));
#1705=CARTESIAN_POINT('',(0.,0.,0.));
#1706=CARTESIAN_POINT('Origin',(40.,1.,45.));
#1707=CARTESIAN_POINT('',(41.,1.,45.));
#1708=CARTESIAN_POINT('',(40.,1.,46.));
#1709=CARTESIAN_POINT('Origin',(40.,1.,45.));
#1710=CARTESIAN_POINT('',(40.,0.,45.));
#1711=CARTESIAN_POINT('Origin',(40.,1.,45.));
#1712=CARTESIAN_POINT('Origin',(40.,1.,45.));
#1713=CARTESIAN_POINT('Origin',(40.,0.,45.));
#1714=CARTESIAN_POINT('',(41.,20.,45.));
#1715=CARTESIAN_POINT('',(40.,20.,46.));
#1716=CARTESIAN_POINT('Origin',(40.,20.,45.));
#1717=CARTESIAN_POINT('',(40.,0.,46.));
#1718=CARTESIAN_POINT('',(41.,0.,45.));
#1719=CARTESIAN_POINT('Origin',(41.,0.,46.));
#1720=CARTESIAN_POINT('',(41.,1.,1.));
#1721=CARTESIAN_POINT('',(41.,1.,34.5));
#1722=CARTESIAN_POINT('',(41.,20.,1.));
#1723=CARTESIAN_POINT('',(41.,0.,1.));
#1724=CARTESIAN_POINT('',(41.,20.,0.));
#1725=CARTESIAN_POINT('',(41.,15.,42.));
#1726=CARTESIAN_POINT('',(41.,15.,32.));
#1727=CARTESIAN_POINT('',(41.,15.,39.));
#1728=CARTESIAN_POINT('',(41.,10.,32.));
#1729=CARTESIAN_POINT('',(41.,5.,32.));
#1730=CARTESIAN_POINT('',(41.,10.,42.));
#1731=CARTESIAN_POINT('',(41.,10.,44.));
#1732=CARTESIAN_POINT('',(41.,7.5,42.));
#1733=CARTESIAN_POINT('',(41.,15.,4.));
#1734=CARTESIAN_POINT('',(41.,10.,4.));
#1735=CARTESIAN_POINT('',(41.,5.,4.));
#1736=CARTESIAN_POINT('',(41.,10.,14.));
#1737=CARTESIAN_POINT('',(41.,10.,30.));
#1738=CARTESIAN_POINT('',(41.,15.,14.));
#1739=CARTESIAN_POINT('',(41.,7.5,14.));
#1740=CARTESIAN_POINT('',(41.,15.,25.));
#1741=CARTESIAN_POINT('Origin',(40.,1.,34.5));
#1742=CARTESIAN_POINT('',(40.,0.,1.));
#1743=CARTESIAN_POINT('',(40.,0.,34.5));
#1744=CARTESIAN_POINT('Origin',(40.,1.,1.));
#1745=CARTESIAN_POINT('Origin',(10.25,1.,45.));
#1746=CARTESIAN_POINT('',(1.,1.,46.));
#1747=CARTESIAN_POINT('',(10.25,1.,46.));
#1748=CARTESIAN_POINT('',(1.,0.,45.));
#1749=CARTESIAN_POINT('Origin',(1.,1.,45.));
#1750=CARTESIAN_POINT('',(10.25,0.,45.));
#1751=CARTESIAN_POINT('Origin',(40.,1.,1.));
#1752=CARTESIAN_POINT('',(40.,1.,0.));
#1753=CARTESIAN_POINT('Origin',(40.,1.,1.));
#1754=CARTESIAN_POINT('Origin',(40.,1.,1.));
#1755=CARTESIAN_POINT('Origin',(1.,1.,1.));
#1756=CARTESIAN_POINT('',(1.,1.,0.));
#1757=CARTESIAN_POINT('',(0.,1.,1.));
#1758=CARTESIAN_POINT('Origin',(1.,1.,1.));
#1759=CARTESIAN_POINT('',(1.,0.,1.));
#1760=CARTESIAN_POINT('Origin',(1.,1.,1.));
#1761=CARTESIAN_POINT('Origin',(1.,1.,1.));
#1762=CARTESIAN_POINT('Origin',(30.75,1.,1.));
#1763=CARTESIAN_POINT('',(30.75,0.,1.));
#1764=CARTESIAN_POINT('',(30.75,1.,0.));
#1765=CARTESIAN_POINT('Origin',(1.,1.,45.));
#1766=CARTESIAN_POINT('',(0.,1.,45.));
#1767=CARTESIAN_POINT('Origin',(1.,1.,45.));
#1768=CARTESIAN_POINT('Origin',(1.,1.,45.));
#1769=CARTESIAN_POINT('Origin',(1.,0.,45.));
#1770=CARTESIAN_POINT('',(0.999999999999996,20.,46.));
#1771=CARTESIAN_POINT('',(0.,20.,45.));
#1772=CARTESIAN_POINT('Origin',(1.,20.,45.));
#1773=CARTESIAN_POINT('',(0.,0.,45.));
#1774=CARTESIAN_POINT('',(1.,0.,46.));
#1775=CARTESIAN_POINT('Origin',(1.,1.,11.5));
#1776=CARTESIAN_POINT('',(1.,0.,11.5));
#1777=CARTESIAN_POINT('',(0.,1.,11.5));
#1778=CARTESIAN_POINT('Origin',(1.,0.,1.));
#1779=CARTESIAN_POINT('',(0.,20.,0.999999999999996));
#1780=CARTESIAN_POINT('',(1.,20.,0.));
#1781=CARTESIAN_POINT('Origin',(1.,20.,1.));
#1782=CARTESIAN_POINT('',(1.,0.,0.));
#1783=CARTESIAN_POINT('',(0.,0.,1.));
#1784=CARTESIAN_POINT('Origin',(40.,0.,1.));
#1785=CARTESIAN_POINT('',(40.,20.,0.));
#1786=CARTESIAN_POINT('Origin',(40.,20.,1.));
#1787=CARTESIAN_POINT('',(40.,0.,0.));
#1788=CARTESIAN_POINT('Origin',(41.,0.,0.));
#1789=CARTESIAN_POINT('',(0.,20.,0.));
#1790=CARTESIAN_POINT('',(7.00000010430813,11.4000001341104,0.));
#1791=CARTESIAN_POINT('',(16.0000001043081,11.4000001341104,0.));
#1792=CARTESIAN_POINT('',(28.5000000521541,11.4000001341104,0.));
#1793=CARTESIAN_POINT('',(16.0000001043081,14.6000001341105,0.));
#1794=CARTESIAN_POINT('Origin',(16.0000001043081,13.0000001341105,0.));
#1795=CARTESIAN_POINT('',(7.00000010430813,14.6000001341105,0.));
#1796=CARTESIAN_POINT('',(24.0000000521541,14.6000001341105,0.));
#1797=CARTESIAN_POINT('Origin',(7.00000010430813,13.0000001341105,0.));
#1798=CARTESIAN_POINT('Origin',(0.,0.,0.));
#1799=CARTESIAN_POINT('',(0.,20.,46.));
#1800=CARTESIAN_POINT('',(0.,15.,32.));
#1801=CARTESIAN_POINT('',(0.,15.,42.));
#1802=CARTESIAN_POINT('',(0.,15.,16.));
#1803=CARTESIAN_POINT('',(0.,10.,42.));
#1804=CARTESIAN_POINT('',(0.,7.5,42.));
#1805=CARTESIAN_POINT('',(0.,10.,32.));
#1806=CARTESIAN_POINT('',(0.,10.,21.));
#1807=CARTESIAN_POINT('',(0.,5.,32.));
#1808=CARTESIAN_POINT('',(0.,10.,4.));
#1809=CARTESIAN_POINT('',(0.,15.,4.));
#1810=CARTESIAN_POINT('',(0.,5.,4.));
#1811=CARTESIAN_POINT('',(0.,15.,14.));
#1812=CARTESIAN_POINT('',(0.,15.,2.));
#1813=CARTESIAN_POINT('',(0.,10.,14.));
#1814=CARTESIAN_POINT('',(0.,7.5,14.));
#1815=CARTESIAN_POINT('',(0.,10.,7.));
#1816=CARTESIAN_POINT('Origin',(20.5,0.,23.));
#1817=CARTESIAN_POINT('Origin',(7.00000010430813,14.6000001341105,1.));
#1818=CARTESIAN_POINT('',(16.0000001043081,14.6000001341105,1.));
#1819=CARTESIAN_POINT('',(16.0000001043081,14.6000001341105,1.));
#1820=CARTESIAN_POINT('',(7.00000010430813,14.6000001341105,1.));
#1821=CARTESIAN_POINT('',(24.0000000521541,14.6000001341105,1.));
#1822=CARTESIAN_POINT('',(7.00000010430813,14.6000001341105,1.));
#1823=CARTESIAN_POINT('Origin',(7.00000010430813,13.0000001341105,1.));
#1824=CARTESIAN_POINT('',(7.00000010430813,11.4000001341104,1.));
#1825=CARTESIAN_POINT('Origin',(7.00000010430813,13.0000001341105,1.));
#1826=CARTESIAN_POINT('',(7.00000010430813,11.4000001341104,1.));
#1827=CARTESIAN_POINT('Origin',(16.0000001043081,11.4000001341104,1.));
#1828=CARTESIAN_POINT('',(16.0000001043081,11.4000001341104,1.));
#1829=CARTESIAN_POINT('',(28.5000000521541,11.4000001341104,1.));
#1830=CARTESIAN_POINT('',(16.0000001043081,11.4000001341104,1.));
#1831=CARTESIAN_POINT('Origin',(16.0000001043081,13.0000001341105,1.));
#1832=CARTESIAN_POINT('Origin',(16.0000001043081,13.0000001341105,1.));
#1833=CARTESIAN_POINT('Origin',(20.5,9.,23.));
#1834=CARTESIAN_POINT('',(1.,9.,1.));
#1835=CARTESIAN_POINT('',(40.,9.,0.999999999999996));
#1836=CARTESIAN_POINT('',(40.,9.,0.999999999999996));
#1837=CARTESIAN_POINT('',(1.,9.,45.));
#1838=CARTESIAN_POINT('',(1.,9.,1.));
#1839=CARTESIAN_POINT('',(40.,9.,45.));
#1840=CARTESIAN_POINT('',(1.,9.,45.));
#1841=CARTESIAN_POINT('',(40.,9.,45.));
#1842=CARTESIAN_POINT('Origin',(40.,0.,46.));
#1843=CARTESIAN_POINT('',(40.,20.,45.));
#1844=CARTESIAN_POINT('',(40.,0.,45.));
#1845=CARTESIAN_POINT('',(40.,20.,0.999999999999999));
#1846=CARTESIAN_POINT('',(40.,20.,34.5));
#1847=CARTESIAN_POINT('',(40.,0.,0.999999999999996));
#1848=CARTESIAN_POINT('Origin',(0.,0.,45.));
#1849=CARTESIAN_POINT('',(1.,20.,45.));
#1850=CARTESIAN_POINT('',(1.,0.,45.));
#1851=CARTESIAN_POINT('',(10.25,20.,45.));
#1852=CARTESIAN_POINT('Origin',(-2.,12.5,11.5845481750105));
#1853=CARTESIAN_POINT('',(-3.05,12.5,11.9));
#1854=CARTESIAN_POINT('Origin',(-2.,12.5,11.9));
#1855=CARTESIAN_POINT('',(-2.,12.5,11.2690963500211));
#1856=CARTESIAN_POINT('',(-2.525,12.5,11.5845481750105));
#1857=CARTESIAN_POINT('Origin',(-2.,12.5,12.95));
#1858=CARTESIAN_POINT('',(-3.05,12.5,14.));
#1859=CARTESIAN_POINT('Origin',(-2.,12.5,14.));
#1860=CARTESIAN_POINT('',(-3.05,12.5,12.95));
#1861=CARTESIAN_POINT('Origin',(-2.,12.5,34.3004303095138));
#1862=CARTESIAN_POINT('',(-0.999999999999997,12.5,34.));
#1863=CARTESIAN_POINT('Origin',(-2.,12.5,34.));
#1864=CARTESIAN_POINT('',(-2.,12.5,34.6008606190276));
#1865=CARTESIAN_POINT('',(-1.5,12.5,34.3004303095138));
#1866=CARTESIAN_POINT('Origin',(-2.,12.5,33.));
#1867=CARTESIAN_POINT('',(-0.999999999999998,12.5,32.));
#1868=CARTESIAN_POINT('Origin',(-2.,12.5,32.));
#1869=CARTESIAN_POINT('',(-0.999999999999998,12.5,33.));
#1870=CARTESIAN_POINT('Origin',(1.00000000000001,15.,4.));
#1871=CARTESIAN_POINT('',(-3.99999999999999,15.,4.));
#1872=CARTESIAN_POINT('',(1.00000000000001,15.,4.));
#1873=CARTESIAN_POINT('',(-3.99999999999999,15.,14.));
#1874=CARTESIAN_POINT('',(-3.99999999999999,15.,14.));
#1875=CARTESIAN_POINT('',(1.00000000000001,15.,14.));
#1876=CARTESIAN_POINT('Origin',(1.00000000000001,10.,4.));
#1877=CARTESIAN_POINT('',(-3.99999999999999,10.,4.));
#1878=CARTESIAN_POINT('',(1.00000000000001,10.,4.));
#1879=CARTESIAN_POINT('',(-3.99999999999999,15.,4.));
#1880=CARTESIAN_POINT('Origin',(1.00000000000001,10.,14.));
#1881=CARTESIAN_POINT('',(-3.99999999999999,10.,14.));
#1882=CARTESIAN_POINT('',(1.00000000000001,10.,14.));
#1883=CARTESIAN_POINT('',(-3.99999999999999,10.,4.));
#1884=CARTESIAN_POINT('Origin',(1.00000000000001,15.,14.));
#1885=CARTESIAN_POINT('',(-3.99999999999999,10.,14.));
#1886=CARTESIAN_POINT('Origin',(-3.99999999999999,12.5,9.));
#1887=CARTESIAN_POINT('Origin',(1.00000000000001,15.,42.));
#1888=CARTESIAN_POINT('',(-3.99999999999999,15.,42.));
#1889=CARTESIAN_POINT('',(1.00000000000001,15.,42.));
#1890=CARTESIAN_POINT('',(-3.99999999999999,10.,42.));
#1891=CARTESIAN_POINT('',(-3.99999999999999,15.,42.));
#1892=CARTESIAN_POINT('',(1.00000000000001,10.,42.));
#1893=CARTESIAN_POINT('Origin',(1.00000000000001,15.,32.));
#1894=CARTESIAN_POINT('',(-3.99999999999999,15.,32.));
#1895=CARTESIAN_POINT('',(1.00000000000001,15.,32.));
#1896=CARTESIAN_POINT('',(-3.99999999999999,15.,32.));
#1897=CARTESIAN_POINT('Origin',(1.00000000000001,10.,32.));
#1898=CARTESIAN_POINT('',(-3.99999999999999,10.,32.));
#1899=CARTESIAN_POINT('',(1.00000000000001,10.,32.));
#1900=CARTESIAN_POINT('',(-3.99999999999999,10.,32.));
#1901=CARTESIAN_POINT('Origin',(1.00000000000001,10.,42.));
#1902=CARTESIAN_POINT('',(-3.99999999999999,10.,42.));
#1903=CARTESIAN_POINT('Origin',(-3.99999999999999,12.5,37.));
#1904=CARTESIAN_POINT('Origin',(43.5,12.5,34.8755378868922));
#1905=CARTESIAN_POINT('',(44.75,12.5,34.5));
#1906=CARTESIAN_POINT('Origin',(43.5,12.5,34.5));
#1907=CARTESIAN_POINT('',(43.5,12.5,35.2510757737845));
#1908=CARTESIAN_POINT('',(44.125,12.5,34.8755378868922));
#1909=CARTESIAN_POINT('Origin',(43.5,12.5,33.25));
#1910=CARTESIAN_POINT('',(44.75,12.5,32.));
#1911=CARTESIAN_POINT('Origin',(43.5,12.5,32.));
#1912=CARTESIAN_POINT('',(44.75,12.5,33.25));
#1913=CARTESIAN_POINT('Origin',(43.5,12.5,11.6995696904862));
#1914=CARTESIAN_POINT('',(42.5,12.5,12.));
#1915=CARTESIAN_POINT('Origin',(43.5,12.5,12.));
#1916=CARTESIAN_POINT('',(43.5,12.5,11.3991393809724));
#1917=CARTESIAN_POINT('',(43.,12.5,11.6995696904862));
#1918=CARTESIAN_POINT('Origin',(43.5,12.5,13.));
#1919=CARTESIAN_POINT('',(42.5,12.5,14.));
#1920=CARTESIAN_POINT('Origin',(43.5,12.5,14.));
#1921=CARTESIAN_POINT('',(42.5,12.5,13.));
#1922=CARTESIAN_POINT('Origin',(41.,10.,4.));
#1923=CARTESIAN_POINT('',(46.,15.,4.));
#1924=CARTESIAN_POINT('',(41.,15.,4.));
#1925=CARTESIAN_POINT('',(46.,10.,4.));
#1926=CARTESIAN_POINT('',(46.,15.,4.));
#1927=CARTESIAN_POINT('',(41.,10.,4.));
#1928=CARTESIAN_POINT('Origin',(41.,10.,14.));
#1929=CARTESIAN_POINT('',(46.,10.,14.));
#1930=CARTESIAN_POINT('',(46.,10.,4.));
#1931=CARTESIAN_POINT('',(41.,10.,14.));
#1932=CARTESIAN_POINT('Origin',(41.,15.,14.));
#1933=CARTESIAN_POINT('',(46.,15.,14.));
#1934=CARTESIAN_POINT('',(46.,10.,14.));
#1935=CARTESIAN_POINT('',(41.,15.,14.));
#1936=CARTESIAN_POINT('Origin',(41.,15.,4.));
#1937=CARTESIAN_POINT('',(46.,15.,14.));
#1938=CARTESIAN_POINT('Origin',(46.,12.5,9.));
#1939=CARTESIAN_POINT('Origin',(41.,15.,32.));
#1940=CARTESIAN_POINT('',(46.,15.,42.));
#1941=CARTESIAN_POINT('',(41.,15.,42.));
#1942=CARTESIAN_POINT('',(46.,15.,32.));
#1943=CARTESIAN_POINT('',(46.,15.,32.));
#1944=CARTESIAN_POINT('',(41.,15.,32.));
#1945=CARTESIAN_POINT('Origin',(41.,10.,32.));
#1946=CARTESIAN_POINT('',(46.,10.,32.));
#1947=CARTESIAN_POINT('',(46.,10.,32.));
#1948=CARTESIAN_POINT('',(41.,10.,32.));
#1949=CARTESIAN_POINT('Origin',(41.,10.,42.));
#1950=CARTESIAN_POINT('',(46.,10.,42.));
#1951=CARTESIAN_POINT('',(46.,10.,42.));
#1952=CARTESIAN_POINT('',(41.,10.,42.));
#1953=CARTESIAN_POINT('Origin',(41.,15.,42.));
#1954=CARTESIAN_POINT('',(46.,15.,42.));
#1955=CARTESIAN_POINT('Origin',(46.,12.5,37.));
#1956=CARTESIAN_POINT('Origin',(1.,0.,0.));
#1957=CARTESIAN_POINT('',(0.999999999999999,20.,1.));
#1958=CARTESIAN_POINT('',(0.999999999999996,0.,1.));
#1959=CARTESIAN_POINT('',(1.,20.,11.5));
#1960=CARTESIAN_POINT('Origin',(41.,0.,1.));
#1961=CARTESIAN_POINT('',(30.75,20.,1.));
#1962=CARTESIAN_POINT('Origin',(0.,0.,46.));
#1963=CARTESIAN_POINT('',(41.,20.,46.));
#1964=CARTESIAN_POINT('Origin',(20.5,20.,23.));
#1965=CARTESIAN_POINT('Origin',(-60.1474940976288,-8.5,25.4768539120869));
#1966=CARTESIAN_POINT('',(-60.1474940976288,2.,22.9768539120869));
#1967=CARTESIAN_POINT('Origin',(-60.1474940976288,2.,25.4768539120869));
#1968=CARTESIAN_POINT('',(-60.1474940976288,0.,22.9768539120869));
#1969=CARTESIAN_POINT('',(-60.1474940976288,-8.5,22.9768539120869));
#1970=CARTESIAN_POINT('Origin',(-60.1474940976288,0.,25.4768539120869));
#1971=CARTESIAN_POINT('Origin',(-35.,2.,14.595372873416));
#1972=CARTESIAN_POINT('',(-35.,0.,18.595372873416));
#1973=CARTESIAN_POINT('',(-35.,0.,14.595372873416));
#1974=CARTESIAN_POINT('',(-35.,0.,18.797686436708));
#1975=CARTESIAN_POINT('',(-35.,2.,18.595372873416));
#1976=CARTESIAN_POINT('',(-35.,2.,18.595372873416));
#1977=CARTESIAN_POINT('',(-35.,2.,14.595372873416));
#1978=CARTESIAN_POINT('',(-35.,2.,18.797686436708));
#1979=CARTESIAN_POINT('',(-35.,2.,14.595372873416));
#1980=CARTESIAN_POINT('Origin',(-45.,2.,14.595372873416));
#1981=CARTESIAN_POINT('',(-45.,0.,14.595372873416));
#1982=CARTESIAN_POINT('',(-47.7500005289912,0.,14.595372873416));
#1983=CARTESIAN_POINT('',(-45.,2.,14.595372873416));
#1984=CARTESIAN_POINT('',(-47.7500005289912,2.,14.595372873416));
#1985=CARTESIAN_POINT('',(-45.,2.,14.595372873416));
#1986=CARTESIAN_POINT('Origin',(-45.,2.,18.595372873416));
#1987=CARTESIAN_POINT('',(-45.,0.,18.595372873416));
#1988=CARTESIAN_POINT('',(-45.,0.,20.797686436708));
#1989=CARTESIAN_POINT('',(-45.,2.,18.595372873416));
#1990=CARTESIAN_POINT('',(-45.,2.,20.797686436708));
#1991=CARTESIAN_POINT('',(-45.,2.,18.595372873416));
#1992=CARTESIAN_POINT('Origin',(-35.,2.,18.595372873416));
#1993=CARTESIAN_POINT('',(-42.7500005289912,0.,18.595372873416));
#1994=CARTESIAN_POINT('',(-42.7500005289912,2.,18.595372873416));
#1995=CARTESIAN_POINT('Origin',(-50.0000007450581,2.,11.0000000745058));
#1996=CARTESIAN_POINT('',(-50.0000007450581,0.,5.00000007450581));
#1997=CARTESIAN_POINT('',(-50.0000007450581,0.,11.0000000745058));
#1998=CARTESIAN_POINT('',(-50.0000007450581,0.,17.0000000372529));
#1999=CARTESIAN_POINT('',(-50.0000007450581,2.,5.00000007450581));
#2000=CARTESIAN_POINT('',(-50.0000007450581,2.,5.00000007450581));
#2001=CARTESIAN_POINT('',(-50.0000007450581,2.,11.0000000745058));
#2002=CARTESIAN_POINT('',(-50.0000007450581,2.,17.0000000372529));
#2003=CARTESIAN_POINT('',(-50.0000007450581,2.,11.0000000745058));
#2004=CARTESIAN_POINT('Origin',(-44.0000007450581,2.,11.0000000745058));
#2005=CARTESIAN_POINT('',(-44.0000007450581,0.,11.0000000745058));
#2006=CARTESIAN_POINT('',(-47.2500009015203,0.,11.0000000745058));
#2007=CARTESIAN_POINT('',(-44.0000007450581,2.,11.0000000745058));
#2008=CARTESIAN_POINT('',(-47.2500009015203,2.,11.0000000745058));
#2009=CARTESIAN_POINT('',(-44.0000007450581,2.,11.0000000745058));
#2010=CARTESIAN_POINT('Origin',(-44.0000007450581,2.,5.00000007450581));
#2011=CARTESIAN_POINT('',(-44.0000007450581,0.,5.00000007450581));
#2012=CARTESIAN_POINT('',(-44.0000007450581,0.,14.0000000372529));
#2013=CARTESIAN_POINT('',(-44.0000007450581,2.,5.00000007450581));
#2014=CARTESIAN_POINT('',(-44.0000007450581,2.,14.0000000372529));
#2015=CARTESIAN_POINT('',(-44.0000007450581,2.,5.00000007450581));
#2016=CARTESIAN_POINT('Origin',(-50.0000007450581,2.,5.00000007450581));
#2017=CARTESIAN_POINT('',(-50.2500009015203,0.,5.00000007450581));
#2018=CARTESIAN_POINT('',(-50.2500009015203,2.,5.00000007450581));
#2019=CARTESIAN_POINT('Origin',(-62.2902843282498,-8.5,10.4265299869253));
#2020=CARTESIAN_POINT('',(-62.2902843282498,2.,4.4265299869253));
#2021=CARTESIAN_POINT('Origin',(-62.2902843282498,2.,10.4265299869253));
#2022=CARTESIAN_POINT('',(-62.2902843282498,0.,4.4265299869253));
#2023=CARTESIAN_POINT('',(-62.2902843282498,-8.5,4.4265299869253));
#2024=CARTESIAN_POINT('Origin',(-62.2902843282498,0.,10.4265299869253));
#2025=CARTESIAN_POINT('Origin',(-71.0000010579824,0.,0.));
#2026=CARTESIAN_POINT('',(-71.0000010579824,0.,46.));
#2027=CARTESIAN_POINT('',(-71.0000010579824,0.,0.));
#2028=CARTESIAN_POINT('',(-71.0000010579824,0.,46.));
#2029=CARTESIAN_POINT('',(-71.0000010579824,2.,46.));
#2030=CARTESIAN_POINT('',(-71.0000010579824,0.,46.));
#2031=CARTESIAN_POINT('',(-71.0000010579824,2.,0.));
#2032=CARTESIAN_POINT('',(-71.0000010579824,2.,46.));
#2033=CARTESIAN_POINT('',(-71.0000010579824,0.,0.));
#2034=CARTESIAN_POINT('Origin',(-30.0000010579824,0.,0.));
#2035=CARTESIAN_POINT('',(-30.0000010579824,0.,0.));
#2036=CARTESIAN_POINT('',(-71.0000010579824,0.,0.));
#2037=CARTESIAN_POINT('',(-30.0000010579824,2.,0.));
#2038=CARTESIAN_POINT('',(-71.0000010579824,2.,0.));
#2039=CARTESIAN_POINT('',(-30.0000010579824,0.,0.));
#2040=CARTESIAN_POINT('Origin',(-30.0000010579824,0.,46.));
#2041=CARTESIAN_POINT('',(-30.0000010579824,0.,46.));
#2042=CARTESIAN_POINT('',(-30.0000010579824,0.,0.));
#2043=CARTESIAN_POINT('',(-30.0000010579824,2.,46.));
#2044=CARTESIAN_POINT('',(-30.0000010579824,2.,0.));
#2045=CARTESIAN_POINT('',(-30.0000010579824,0.,46.));
#2046=CARTESIAN_POINT('Origin',(-71.0000010579824,0.,46.));
#2047=CARTESIAN_POINT('',(-30.0000010579824,0.,46.));
#2048=CARTESIAN_POINT('',(-30.0000010579824,2.,46.));
#2049=CARTESIAN_POINT('Origin',(-50.5000010579824,2.,23.));
#2050=CARTESIAN_POINT('Origin',(-50.5000010579824,0.,23.));
#2051=UNCERTAINTY_MEASURE_WITH_UNIT(LENGTH_MEASURE(0.01),#2055,
'DISTANCE_ACCURACY_VALUE',
'Maximum model space distance between geometric entities at asserted c
onnectivities');
#2052=UNCERTAINTY_MEASURE_WITH_UNIT(LENGTH_MEASURE(0.01),#2055,
'DISTANCE_ACCURACY_VALUE',
'Maximum model space distance between geometric entities at asserted c
onnectivities');
#2053=(
GEOMETRIC_REPRESENTATION_CONTEXT(3)
GLOBAL_UNCERTAINTY_ASSIGNED_CONTEXT((#2051))
GLOBAL_UNIT_ASSIGNED_CONTEXT((#2055,#2057,#2058))
REPRESENTATION_CONTEXT('','3D')
);
#2054=(
GEOMETRIC_REPRESENTATION_CONTEXT(3)
GLOBAL_UNCERTAINTY_ASSIGNED_CONTEXT((#2052))
GLOBAL_UNIT_ASSIGNED_CONTEXT((#2055,#2057,#2058))
REPRESENTATION_CONTEXT('','3D')
);
#2055=(
LENGTH_UNIT()
NAMED_UNIT(*)
SI_UNIT(.MILLI.,.METRE.)
);
#2056=(
LENGTH_UNIT()
NAMED_UNIT(*)
SI_UNIT($,.METRE.)
);
#2057=(
NAMED_UNIT(*)
PLANE_ANGLE_UNIT()
SI_UNIT($,.RADIAN.)
);
#2058=(
NAMED_UNIT(*)
SI_UNIT($,.STERADIAN.)
SOLID_ANGLE_UNIT()
);
#2059=SHAPE_DEFINITION_REPRESENTATION(#2060,#2061);
#2060=PRODUCT_DEFINITION_SHAPE('',$,#2063);
#2061=SHAPE_REPRESENTATION('',(#1259),#2053);
#2062=PRODUCT_DEFINITION_CONTEXT('part definition',#2067,'design');
#2063=PRODUCT_DEFINITION('2026-09-27-15-02-45-311','m6',#2064,#2062);
#2064=PRODUCT_DEFINITION_FORMATION('',$,#2069);
#2065=PRODUCT_RELATED_PRODUCT_CATEGORY('m6','m6',(#2069));
#2066=APPLICATION_PROTOCOL_DEFINITION('international standard',
'automotive_design',2009,#2067);
#2067=APPLICATION_CONTEXT(
'Core Data for Automotive Mechanical Design Process');
#2068=PRODUCT_CONTEXT('part definition',#2067,'mechanical');
#2069=PRODUCT('2026-09-27-15-02-45-311','m6',$,(#2068));
#2070=PRESENTATION_STYLE_ASSIGNMENT((#2071));
#2071=SURFACE_STYLE_USAGE(.BOTH.,#2072);
#2072=SURFACE_SIDE_STYLE('',(#2073));
#2073=SURFACE_STYLE_FILL_AREA(#2074);
#2074=FILL_AREA_STYLE('Steel - Satin',(#2075));
#2075=FILL_AREA_STYLE_COLOUR('Steel - Satin',#2076);
#2076=COLOUR_RGB('Steel - Satin',0.627450980392157,0.627450980392157,0.627450980392157);
ENDSEC;
END-ISO-10303-21;
